<svg width="1920" height="758" viewBox="0 0 1920 758" fill="none" xmlns="http://www.w3.org/2000/svg">
<path d="M0 754.203H231.5V549.507H0V754.203Z" fill="#71C23E" stroke="#121214" stroke-width="6"/>
<path d="M564.34 543.901H780.824V428.151H564.34V543.901Z" fill="#71C23E" stroke="#121214" stroke-width="6"/>
<path d="M0 429.454H231.5V195.158H0V429.454Z" fill="#FFD800" stroke="#121214" stroke-width="6"/>
<path d="M1476.45 754.202H1571.4V658.106H1476.45V754.202Z" fill="#FFD800" stroke="#121214" stroke-width="6"/>
<path d="M232.876 429.453V545.203L464.376 660.953V545.203L232.876 429.453Z" fill="#01A6BC" stroke="#121214" stroke-width="6"/>
<path d="M232.876 313.704V429.454L464.376 545.204V429.454L232.876 313.704Z" fill="#FA547C" stroke="#121214" stroke-width="6"/>
<path d="M705.852 429.455V313.705L937.352 197.955V313.705L705.852 429.455Z" fill="#FAA525" stroke="#121214" stroke-width="6"/>
<path d="M1267.95 754.203H1372.2C1392.82 754.203 1412.97 748.036 1430.12 736.482C1447.26 724.928 1460.62 708.505 1468.51 689.291C1476.4 670.078 1478.47 648.935 1474.45 628.538C1470.42 608.14 1460.49 589.404 1445.92 574.699C1431.34 559.993 1412.76 549.978 1392.54 545.921C1372.31 541.864 1351.35 543.946 1332.3 551.905C1313.26 559.863 1296.97 573.341 1285.52 590.633C1274.06 607.925 1267.95 628.255 1267.95 649.052V754.203Z" fill="#FA547C" stroke="#121214" stroke-width="6"/>
<path d="M922.336 543.901H1027.54C1048.34 543.901 1068.68 537.77 1085.98 526.283C1103.28 514.796 1116.77 498.468 1124.73 479.366C1132.69 460.263 1134.78 439.243 1130.72 418.964C1126.66 398.684 1116.64 380.057 1101.93 365.436C1087.21 350.816 1068.47 340.859 1048.06 336.825C1027.65 332.791 1006.5 334.862 987.278 342.774C968.055 350.687 951.625 364.086 940.066 381.278C928.506 398.47 922.336 418.682 922.336 439.359V543.901Z" fill="#FAA525" stroke="#121214" stroke-width="6"/>
<path d="M1239.25 334.816H1343.5C1364.12 334.816 1384.28 340.948 1401.42 352.435C1418.57 363.922 1431.93 380.25 1439.82 399.352C1447.71 418.455 1449.77 439.475 1445.75 459.754C1441.73 480.033 1431.8 498.661 1417.22 513.282C1402.64 527.902 1384.06 537.859 1363.84 541.893C1343.62 545.926 1322.66 543.856 1303.61 535.943C1284.56 528.031 1268.28 514.631 1256.82 497.44C1245.37 480.248 1239.25 460.035 1239.25 439.359V334.816Z" fill="#FFD800" stroke="#121214" stroke-width="6"/>
<path d="M1049.26 543.901H1157.5C1186.21 543.901 1213.74 554.98 1234.04 574.7C1254.34 594.419 1265.75 621.165 1265.75 649.053C1265.75 676.941 1254.34 703.687 1234.04 723.406C1213.74 743.126 1186.21 754.205 1157.5 754.205H1049.26V543.901Z" fill="#71C23E" stroke="#121214" stroke-width="6"/>
<path d="M922.336 543.901H814.094C785.386 543.901 757.855 554.98 737.555 574.7C717.256 594.419 705.852 621.165 705.852 649.053C705.852 676.941 717.256 703.687 737.555 723.406C757.855 743.126 785.386 754.205 814.094 754.205H922.336V543.901Z" fill="#01A6BC" stroke="#121214" stroke-width="6"/>
<path d="M1916.08 534.231H1794.03C1761.66 534.231 1730.61 545.819 1707.72 566.446C1684.83 587.072 1671.98 615.048 1671.98 644.218C1671.98 673.388 1684.83 701.364 1707.72 721.99C1730.61 742.617 1761.66 754.205 1794.03 754.205H1916.08V534.231Z" fill="#01A6BC" stroke="#121214" stroke-width="6"/>
<circle cx="989.488" cy="245.775" r="47.82" fill="#FFD800" stroke="#121214" stroke-width="6"/>
<circle cx="236.392" cy="147.339" r="47.82" fill="#71C23E" stroke="#121214" stroke-width="6"/>
<circle cx="1827.21" cy="486.134" r="47.82" fill="#71C23E" stroke="#121214" stroke-width="6"/>
<circle cx="456.89" cy="706.384" r="47.82" fill="#C5C6C7" stroke="#121214" stroke-width="6"/>
<circle cx="720.402" cy="249.784" r="47.82" fill="#C5C6C7" stroke="#121214" stroke-width="6"/>
<circle cx="1821.32" cy="51.6842" r="47.82" fill="#FAA525" stroke="#121214" stroke-width="6"/>
<circle cx="1512.82" cy="245.775" r="47.82" fill="#FA547C" stroke="#121214" stroke-width="6"/>
<circle cx="1075.36" cy="293.595" r="47.82" fill="#FFD800" stroke="#121214" stroke-width="6"/>
<circle cx="1821.32" cy="147.338" r="47.82" fill="#FFD800" stroke="#121214" stroke-width="6"/>
<path d="M1779.39 534.232V293.595L1657.75 403.767L1536.12 293.595V534.232H1779.39Z" fill="#71C23E" stroke="#121214" stroke-width="6"/>
<path d="M1875.03 195.158L1875.03 400.049L1779.64 400.049L1779.64 292.386L1671.98 292.386L1671.98 195.158L1875.03 195.158Z" fill="#FFD800" stroke="#121214" stroke-width="6"/>
</svg>
