<svg width="374" height="773" viewBox="0 0 374 773" fill="none" xmlns="http://www.w3.org/2000/svg">
<path d="M1.9502 515.865H128.137V404.288H1.9502V515.865Z" fill="#71C23E" stroke="#121214" stroke-width="3.75"/>
<path d="M254.325 401.233H372.328V338.139H254.325V401.233Z" fill="#71C23E" stroke="#121214" stroke-width="3.75"/>
<path d="M1.9502 338.85H128.137V211.138H1.9502V338.85Z" fill="#FFD800" stroke="#121214" stroke-width="3.75"/>
<path d="M270.521 238.729H322.277V186.349H270.521V238.729Z" fill="#01A6BC" stroke="#121214" stroke-width="3.75"/>
<path d="M128.138 338.849V401.943L254.325 465.037V401.943L128.138 338.849Z" fill="#01A6BC" stroke="#121214" stroke-width="3.75"/>
<path d="M128.138 275.756V338.849L254.325 401.943V338.849L128.138 275.756Z" fill="#FA547C" stroke="#121214" stroke-width="3.75"/>
<path d="M254.325 338.85V275.757L380.512 212.663V275.757L254.325 338.85Z" fill="#FAA525" stroke="#121214" stroke-width="3.75"/>
<path d="M156.87 284.966H213.695C224.934 284.966 235.921 281.604 245.266 275.306C254.61 269.008 261.894 260.057 266.195 249.583C270.496 239.11 271.621 227.586 269.429 216.467C267.236 205.349 261.824 195.136 253.877 187.121C245.93 179.105 235.804 173.646 224.781 171.434C213.758 169.223 202.333 170.358 191.949 174.696C181.566 179.034 172.691 186.38 166.447 195.806C160.203 205.232 156.87 216.313 156.87 227.649V284.966Z" fill="#FFD800" stroke="#121214" stroke-width="3.75"/>
<path d="M1.9502 655.932H59.2938C70.6353 655.932 81.7221 652.59 91.1522 646.328C100.582 640.067 107.932 631.167 112.272 620.755C116.613 610.342 117.748 598.884 115.536 587.83C113.323 576.777 107.862 566.623 99.8419 558.653C91.8222 550.684 81.6046 545.257 70.481 543.058C59.3574 540.859 47.8275 541.988 37.3494 546.301C26.8712 550.614 17.9153 557.918 11.6143 567.289C5.31334 576.66 1.9502 587.677 1.9502 598.948L1.9502 655.932Z" fill="#FAA525" stroke="#121214" stroke-width="3.75"/>
<path d="M119.953 596.409H176.778C188.017 596.409 199.004 599.751 208.349 606.012C217.693 612.274 224.977 621.174 229.278 631.586C233.579 641.999 234.704 653.456 232.512 664.51C230.319 675.564 224.907 685.718 216.96 693.687C209.013 701.657 198.887 707.084 187.864 709.283C176.841 711.482 165.416 710.353 155.032 706.04C144.649 701.727 135.774 694.423 129.53 685.052C123.286 675.681 119.953 664.664 119.953 653.393V596.409Z" fill="#FA547C" stroke="#121214" stroke-width="3.75"/>
<path d="M1.9502 655.932H60.9513C76.5993 655.932 91.6065 661.971 102.671 672.72C113.736 683.469 119.952 698.047 119.952 713.249C119.952 728.45 113.736 743.029 102.671 753.778C91.6065 764.527 76.5993 770.565 60.9513 770.565H1.9502V655.932Z" fill="#71C23E" stroke="#121214" stroke-width="3.75"/>
<path d="M372.326 401.233H313.325C297.677 401.233 282.67 407.272 271.605 418.021C260.54 428.769 254.324 443.348 254.324 458.55C254.324 473.751 260.54 488.33 271.605 499.078C282.67 509.827 297.677 515.866 313.325 515.866H372.326V401.233Z" fill="#01A6BC" stroke="#121214" stroke-width="3.75"/>
<path d="M372.327 650.661H305.799C288.154 650.661 271.233 656.977 258.756 668.22C246.28 679.463 239.27 694.712 239.27 710.613C239.27 726.513 246.28 741.762 258.756 753.005C271.233 764.248 288.154 770.565 305.799 770.565H372.327V650.661Z" fill="#01A6BC" stroke="#121214" stroke-width="3.75"/>
<circle cx="121.846" cy="543.33" r="26.066" fill="#FFD800" stroke="#121214" stroke-width="3.75"/>
<circle cx="30.3658" cy="132.933" r="26.066" fill="#C5C6C7" stroke="#121214" stroke-width="3.75"/>
<circle cx="351.55" cy="195.097" r="26.066" fill="#71C23E" stroke="#121214" stroke-width="3.75"/>
<circle cx="233.366" cy="489.8" r="26.066" fill="#C5C6C7" stroke="#121214" stroke-width="3.75"/>
<circle cx="28.0161" cy="185.071" r="26.066" fill="#FAA525" stroke="#121214" stroke-width="3.75"/>
<circle cx="213.695" cy="744.5" r="26.066" fill="#FAA525" stroke="#121214" stroke-width="3.75"/>
<circle cx="262.509" cy="158.999" r="26.066" fill="#FA547C" stroke="#121214" stroke-width="3.75"/>
<circle cx="189.509" cy="570.343" r="26.066" fill="#FFD800" stroke="#121214" stroke-width="3.75"/>
<circle cx="348.341" cy="28.937" r="26.066" fill="#FFD800" stroke="#121214" stroke-width="3.75"/>
<path d="M372.327 650.378V519.21L306.025 579.263L239.724 519.21V650.378H372.327Z" fill="#71C23E" stroke="#121214" stroke-width="3.75"/>
<path d="M377.615 55.0039L377.615 166.687L325.621 166.687L325.621 108.001L266.936 108.001L266.936 55.0039L377.615 55.0039Z" fill="#FFD800" stroke="#121214" stroke-width="3.75"/>
</svg>
