<svg xmlns="http://www.w3.org/2000/svg" fill="none" viewBox="18.97 25.82 200.75 47.35">
<path d="M19.9707 60.834C19.9707 54.5728 25.0464 49.4971 31.3076 49.4971H43.3316V72.1709H31.3076C25.0464 72.1709 19.9707 67.0952 19.9707 60.834V60.834Z" fill="#71C23E" stroke="#121214" stroke-width="2"/>
<path d="M54.668 60.8564C54.668 54.5952 59.7437 49.4971 66.0049 49.4971H78.0288V60.1021C78.0288 66.7675 72.6255 72.1709 65.9601 72.1709V72.1709C59.7236 72.1709 54.668 67.0929 54.668 60.8564V60.8564Z" fill="#01A6BC" stroke="#121214" stroke-width="2"/>
<path d="M43.332 38.1826C43.332 31.9214 38.2563 26.8232 31.9951 26.8232H19.9712V37.4283C19.9712 44.0937 25.3745 49.4971 32.0399 49.4971V49.4971C38.2764 49.4971 43.332 44.4191 43.332 38.1826V38.1826Z" fill="#FA547C" stroke="#121214" stroke-width="2"/>
<path d="M66.0048 38.1601C66.0048 44.4213 60.9291 49.497 54.6679 49.497C48.4068 49.497 43.3311 44.4213 43.3311 38.1601C43.3311 31.8989 48.4068 26.8232 54.6679 26.8232C60.9291 26.8232 66.0048 31.8989 66.0048 38.1601Z" fill="#FAA525" stroke="#121214" stroke-width="2"/>
<path d="M78.0293 38.1601C78.0293 31.8989 72.9536 26.8232 66.6924 26.8232H54.6684V49.4971H66.6924C72.9536 49.4971 78.0293 44.4213 78.0293 38.1601V38.1601Z" fill="#FFD800" stroke="#121214" stroke-width="2"/>
<path d="M54.6679 60.834C54.6679 67.0952 49.5922 72.1709 43.331 72.1709C37.0698 72.1709 31.9941 67.0952 31.9941 60.834C31.9941 54.5728 37.0698 49.4971 43.331 49.4971C49.5922 49.4971 54.6679 54.5728 54.6679 60.834Z" fill="#121214" stroke="#121214" stroke-width="2"/>
<path d="M99 60.8721V38.1221H106C108 38.1221 109.786 38.5752 111.359 39.4814C112.943 40.3773 114.177 41.6585 115.062 43.3252C115.948 44.9814 116.391 46.8669 116.391 48.9814V50.0283C116.391 52.1429 115.953 54.0231 115.078 55.6689C114.214 57.3148 112.99 58.5908 111.406 59.4971C109.823 60.4033 108.036 60.8617 106.047 60.8721H99ZM103.688 41.9189V57.1064H105.953C107.786 57.1064 109.188 56.5075 110.156 55.3096C111.125 54.1117 111.62 52.3981 111.641 50.1689V48.9658C111.641 46.6533 111.161 44.9033 110.203 43.7158C109.245 42.5179 107.844 41.9189 106 41.9189H103.688Z" fill="#121214"/>
<path d="M126.977 61.1846C124.498 61.1846 122.477 60.4242 120.914 58.9033C119.362 57.3825 118.586 55.3564 118.586 52.8252V52.3877C118.586 50.6898 118.914 49.1742 119.571 47.8408C120.227 46.4971 121.154 45.4658 122.352 44.7471C123.56 44.0179 124.935 43.6533 126.477 43.6533C128.789 43.6533 130.607 44.3825 131.93 45.8408C133.263 47.2992 133.93 49.3669 133.93 52.0439V53.8877H123.164C123.31 54.9919 123.748 55.8773 124.477 56.5439C125.216 57.2106 126.149 57.5439 127.274 57.5439C129.013 57.5439 130.373 56.9137 131.352 55.6533L133.571 58.1377C132.894 59.096 131.977 59.846 130.821 60.3877C129.664 60.9189 128.383 61.1846 126.977 61.1846ZM126.461 47.3096C125.565 47.3096 124.836 47.6117 124.274 48.2158C123.722 48.82 123.368 49.6846 123.211 50.8096H129.493V50.4502C129.472 49.4502 129.201 48.6794 128.68 48.1377C128.159 47.5856 127.42 47.3096 126.461 47.3096Z" fill="#121214"/>
<path d="M142.298 55.3564L145.438 43.9658H150.157L144.454 60.8721H140.141L134.438 43.9658H139.157L142.298 55.3564Z" fill="#121214"/>
<path d="M163.931 54.9033C163.931 54.0179 163.618 53.3408 162.993 52.8721C162.368 52.3929 161.243 51.8929 159.618 51.3721C157.993 50.8408 156.707 50.32 155.759 49.8096C153.175 48.4137 151.884 46.5335 151.884 44.1689C151.884 42.9398 152.228 41.846 152.915 40.8877C153.613 39.9189 154.608 39.1637 155.899 38.6221C157.201 38.0804 158.66 37.8096 160.274 37.8096C161.899 37.8096 163.347 38.1064 164.618 38.7002C165.889 39.2835 166.873 40.1117 167.571 41.1846C168.28 42.2575 168.634 43.4762 168.634 44.8408H163.946C163.946 43.7992 163.618 42.9919 162.962 42.4189C162.306 41.8356 161.384 41.5439 160.196 41.5439C159.05 41.5439 158.16 41.7887 157.524 42.2783C156.889 42.7575 156.571 43.3929 156.571 44.1846C156.571 44.9242 156.941 45.5439 157.681 46.0439C158.431 46.5439 159.53 47.0127 160.978 47.4502C163.644 48.2523 165.587 49.2471 166.806 50.4346C168.024 51.6221 168.634 53.1012 168.634 54.8721C168.634 56.8408 167.889 58.3877 166.399 59.5127C164.91 60.6273 162.905 61.1846 160.384 61.1846C158.634 61.1846 157.04 60.8669 155.603 60.2314C154.165 59.5856 153.066 58.7054 152.306 57.5908C151.556 56.4762 151.181 55.1846 151.181 53.7158H155.884C155.884 56.2262 157.384 57.4814 160.384 57.4814C161.498 57.4814 162.368 57.2575 162.993 56.8096C163.618 56.3512 163.931 55.7158 163.931 54.9033Z" fill="#121214"/>
<path d="M185.908 54.7314L188.126 43.9658H192.486L188.173 60.8721H184.392L181.189 50.2314L177.986 60.8721H174.22L169.908 43.9658H174.267L176.47 54.7158L179.564 43.9658H182.829L185.908 54.7314Z" fill="#121214"/>
<path d="M204.213 60.8721C204.004 60.4658 203.853 59.9606 203.759 59.3564C202.666 60.5752 201.244 61.1846 199.494 61.1846C197.838 61.1846 196.463 60.7054 195.369 59.7471C194.285 58.7887 193.744 57.5804 193.744 56.1221C193.744 54.3304 194.405 52.9554 195.728 51.9971C197.061 51.0387 198.983 50.5544 201.494 50.5439H203.572V49.5752C203.572 48.7939 203.369 48.1689 202.963 47.7002C202.567 47.2314 201.936 46.9971 201.072 46.9971C200.311 46.9971 199.713 47.1794 199.275 47.5439C198.848 47.9085 198.634 48.4085 198.634 49.0439H194.119C194.119 48.0648 194.421 47.1585 195.025 46.3252C195.629 45.4919 196.483 44.8408 197.588 44.3721C198.692 43.8929 199.931 43.6533 201.306 43.6533C203.39 43.6533 205.041 44.1794 206.259 45.2314C207.489 46.2731 208.103 47.7419 208.103 49.6377V56.9658C208.114 58.57 208.338 59.7835 208.775 60.6064V60.8721H204.213ZM200.478 57.7314C201.145 57.7314 201.759 57.5856 202.322 57.2939C202.884 56.9919 203.301 56.5908 203.572 56.0908V53.1846H201.884C199.624 53.1846 198.421 53.9658 198.275 55.5283L198.259 55.7939C198.259 56.3564 198.457 56.82 198.853 57.1846C199.249 57.5492 199.791 57.7314 200.478 57.7314Z" fill="#121214"/>
<path d="M216.658 39.8096V43.9658H219.549V47.2783H216.658V55.7158C216.658 56.3408 216.778 56.7887 217.018 57.0596C217.257 57.3304 217.715 57.4658 218.393 57.4658C218.893 57.4658 219.335 57.4294 219.721 57.3564V60.7783C218.835 61.0492 217.924 61.1846 216.986 61.1846C213.82 61.1846 212.205 59.5856 212.143 56.3877V47.2783H209.674V43.9658H212.143V39.8096H216.658Z" fill="#121214"/>
</svg>