<svg width="360" height="116" viewBox="0 0 360 116" fill="none" xmlns="http://www.w3.org/2000/svg">
<path d="M25.09 71.4192C25.09 64.7259 30.516 59.3 37.2092 59.3H50.1417V83.5384H37.2092C30.516 83.5384 25.09 78.1124 25.09 71.4192Z" fill="#71C23E" stroke="#121214" stroke-width="2.6"/>
<path d="M66.1604 71.4458C66.1604 64.7492 71.5896 59.3 78.2795 59.3H91.212V70.5529C91.212 77.7246 85.3982 83.5384 78.2265 83.5384C71.5659 83.5384 66.1604 78.1131 66.1604 71.4458Z" fill="#01A6BC" stroke="#121214" stroke-width="2.6"/>
<path d="M50.1414 44.6074C50.1414 37.9108 44.7121 32.4616 38.0222 32.4616H25.0898V43.7145C25.0898 50.8862 30.9036 56.7 38.0753 56.7C44.7359 56.7 50.1414 51.2747 50.1414 44.6074Z" fill="#FA547C" stroke="#121214" stroke-width="2.6"/>
<path d="M76.9798 44.5808C76.9798 51.274 71.5538 56.7 64.8606 56.7C58.1673 56.7 52.7414 51.274 52.7414 44.5808C52.7414 37.8876 58.1673 32.4616 64.8606 32.4616C71.5538 32.4616 76.9798 37.8876 76.9798 44.5808Z" fill="#FAA525" stroke="#121214" stroke-width="2.6"/>
<path d="M91.2127 44.5808C91.2127 37.8876 85.7868 32.4616 79.0935 32.4616H66.161V56.7H79.0935C85.7868 56.7 91.2127 51.2741 91.2127 44.5808Z" fill="#FFD800" stroke="#121214" stroke-width="2.6"/>
<path d="M63.5608 71.4192C63.5608 78.1124 58.1349 83.5384 51.4416 83.5384C44.7484 83.5384 39.3225 78.1124 39.3225 71.4192C39.3225 64.7259 44.7484 59.3 51.4416 59.3C58.1349 59.3 63.5608 64.7259 63.5608 71.4192Z" fill="#121214" stroke="#121214" stroke-width="2.6"/>
<path d="M136.919 39.04C142.706 39.04 147.13 40.6453 150.191 43.856C153.29 47.0667 154.839 51.6213 154.839 57.52C154.839 63.4187 153.29 67.9733 150.191 71.184C147.13 74.3947 142.706 76 136.919 76H121.239V39.04H136.919ZM135.967 68.72C139.103 68.72 141.381 67.7867 142.799 65.92C144.255 64.016 144.983 61.216 144.983 57.52C144.983 53.824 144.255 51.0427 142.799 49.176C141.381 47.272 139.103 46.32 135.967 46.32H130.871V68.72H135.967ZM173.867 76.56C170.768 76.56 168.08 75.9813 165.803 74.824C163.563 73.6667 161.827 72.0053 160.595 69.84C159.363 67.6747 158.747 65.0613 158.747 62C158.747 58.9387 159.363 56.3253 160.595 54.16C161.827 51.9947 163.544 50.3333 165.747 49.176C167.987 48.0187 170.544 47.44 173.419 47.44C176.368 47.44 178.869 48.0187 180.923 49.176C183.013 50.296 184.6 51.864 185.683 53.88C186.765 55.8587 187.307 58.136 187.307 60.712C187.307 61.384 187.288 62.056 187.251 62.728C187.213 63.4 187.157 63.96 187.083 64.408H164.907V59.312H182.883L178.347 61.048C178.347 58.808 177.936 57.0907 177.115 55.896C176.331 54.7013 175.099 54.104 173.419 54.104C172.224 54.104 171.197 54.384 170.339 54.944C169.517 55.504 168.883 56.3813 168.435 57.576C168.024 58.7707 167.819 60.3013 167.819 62.168C167.819 63.9973 168.061 65.4907 168.547 66.648C169.032 67.768 169.723 68.5893 170.619 69.112C171.515 69.5973 172.597 69.84 173.867 69.84C175.285 69.84 176.405 69.56 177.227 69C178.085 68.44 178.72 67.656 179.131 66.648L186.747 69.168C186.224 70.7733 185.309 72.136 184.003 73.256C182.733 74.3387 181.203 75.16 179.411 75.72C177.656 76.28 175.808 76.56 173.867 76.56ZM209.397 48H219.253L209.173 76H197.805L187.725 48H197.749L203.517 69.336L209.397 48ZM237.148 38.48C240.583 38.48 243.607 39.0213 246.22 40.104C248.871 41.1493 251.167 42.6987 253.108 44.752L248.46 50.968C246.855 49.288 245.119 48.0373 243.252 47.216C241.423 46.3573 239.332 45.928 236.98 45.928C235.599 45.928 234.479 46.0773 233.62 46.376C232.761 46.6747 232.145 47.0853 231.772 47.608C231.399 48.1307 231.212 48.728 231.212 49.4C231.212 50.184 231.567 50.856 232.276 51.416C233.023 51.9387 234.217 52.3867 235.86 52.76L242.076 54.16C245.772 55.0187 248.479 56.2693 250.196 57.912C251.913 59.5547 252.772 61.7387 252.772 64.464C252.772 67.0773 252.1 69.2987 250.756 71.128C249.412 72.92 247.564 74.2827 245.212 75.216C242.86 76.112 240.172 76.56 237.148 76.56C234.684 76.56 232.332 76.2987 230.092 75.776C227.852 75.216 225.836 74.432 224.044 73.424C222.252 72.416 220.74 71.2587 219.508 69.952L224.156 63.512C225.089 64.5947 226.228 65.5653 227.572 66.424C228.953 67.2453 230.447 67.8987 232.052 68.384C233.695 68.8693 235.356 69.112 237.036 69.112C238.343 69.112 239.425 68.9813 240.284 68.72C241.18 68.4587 241.833 68.0667 242.244 67.544C242.655 67.0213 242.86 66.4053 242.86 65.696C242.86 64.912 242.58 64.2587 242.02 63.736C241.46 63.176 240.396 62.7093 238.828 62.336L231.996 60.824C229.905 60.3387 228.039 59.704 226.396 58.92C224.791 58.0987 223.521 57.016 222.588 55.672C221.655 54.2907 221.188 52.5733 221.188 50.52C221.188 48.2053 221.823 46.152 223.092 44.36C224.361 42.5307 226.191 41.0933 228.58 40.048C230.969 39.0027 233.825 38.48 237.148 38.48ZM294.242 48H304.21L295.754 76H284.33L279.234 58.808L274.306 76H262.938L254.426 48H264.45L269.154 68.664L274.642 48H284.05L289.482 68.664L294.242 48ZM322.719 58.248C322.719 56.9413 322.346 55.9147 321.599 55.168C320.89 54.384 319.919 53.992 318.687 53.992C317.455 53.992 316.391 54.3093 315.495 54.944C314.637 55.5413 314.039 56.624 313.703 58.192L305.639 56.288C306.162 53.6 307.543 51.4533 309.783 49.848C312.023 48.2427 315.178 47.44 319.247 47.44C321.973 47.44 324.287 47.8507 326.191 48.672C328.133 49.456 329.607 50.6507 330.615 52.256C331.661 53.824 332.183 55.7653 332.183 58.08V68.328C332.183 69.784 332.837 70.512 334.143 70.512C334.815 70.512 335.357 70.4373 335.767 70.288L335.207 75.72C334.087 76.2427 332.725 76.504 331.119 76.504C329.663 76.504 328.375 76.28 327.255 75.832C326.135 75.3467 325.258 74.6373 324.623 73.704C323.989 72.7333 323.671 71.52 323.671 70.064V69.728L324.735 69.336C324.735 70.9413 324.25 72.2853 323.279 73.368C322.346 74.4507 321.114 75.2533 319.583 75.776C318.09 76.2987 316.522 76.56 314.879 76.56C312.975 76.56 311.314 76.2613 309.895 75.664C308.477 75.0667 307.375 74.208 306.591 73.088C305.845 71.9307 305.471 70.512 305.471 68.832C305.471 66.816 306.069 65.1547 307.263 63.848C308.495 62.504 310.418 61.5707 313.031 61.048L323.615 58.864L323.559 63.904L318.183 65.024C317.063 65.248 316.223 65.584 315.663 66.032C315.141 66.4427 314.879 67.0773 314.879 67.936C314.879 68.7573 315.178 69.3733 315.775 69.784C316.373 70.1947 317.082 70.4 317.903 70.4C318.538 70.4 319.135 70.3067 319.695 70.12C320.293 69.9333 320.815 69.6533 321.263 69.28C321.711 68.8693 322.066 68.3653 322.327 67.768C322.589 67.1707 322.719 66.4613 322.719 65.64V58.248ZM349.575 39.096V66.032C349.575 67.376 349.893 68.3467 350.527 68.944C351.199 69.504 352.114 69.784 353.271 69.784C354.167 69.784 354.933 69.6907 355.567 69.504C356.239 69.28 356.837 68.9627 357.359 68.552L358.367 74.432C357.434 75.104 356.258 75.6267 354.839 76C353.421 76.3733 351.965 76.56 350.471 76.56C348.343 76.56 346.495 76.2613 344.927 75.664C343.397 75.0667 342.202 74.1147 341.343 72.808C340.522 71.5013 340.093 69.7653 340.055 67.6V41.728L349.575 39.096ZM357.919 48V54.776H335.239V48H357.919Z" fill="#121214"/>
</svg>
