<svg xmlns="http://www.w3.org/2000/svg" fill="none" viewBox="14.72 18.88 181.64 36.24">
<path d="M15.7197 45.5605C15.7197 40.8327 19.5524 37 24.2802 37H33.3596V54.121H24.2802C19.5524 54.121 15.7197 50.2884 15.7197 45.5605V45.5605Z" fill="#71C23E" stroke="#121214" stroke-width="2"/>
<path d="M41.9199 45.5775C41.9199 40.8496 45.7526 37 50.4804 37H59.5598V45.0079C59.5598 50.0409 55.4797 54.121 50.4466 54.121V54.121C45.7374 54.121 41.9199 50.2866 41.9199 45.5775V45.5775Z" fill="#01A6BC" stroke="#121214" stroke-width="2"/>
<path d="M33.3594 28.4565C33.3594 23.7287 29.5267 19.879 24.7989 19.879H15.7195V27.8869C15.7195 32.92 19.7996 37.0001 24.8327 37.0001V37.0001C29.5419 37.0001 33.3594 33.1657 33.3594 28.4565V28.4565Z" fill="#FA547C" stroke="#121214" stroke-width="2"/>
<path d="M50.4804 28.4395C50.4804 33.1674 46.6477 37.0001 41.9199 37.0001C37.192 37.0001 33.3594 33.1674 33.3594 28.4395C33.3594 23.7117 37.192 19.879 41.9199 19.879C46.6477 19.879 50.4804 23.7117 50.4804 28.4395Z" fill="#FAA525" stroke="#121214" stroke-width="2"/>
<path d="M59.5596 28.4396C59.5596 23.7117 55.7269 19.879 50.9991 19.879H41.9197V37.0001H50.9991C55.7269 37.0001 59.5596 33.1674 59.5596 28.4396V28.4396Z" fill="#FFD800" stroke="#121214" stroke-width="2"/>
<path d="M41.9199 45.5605C41.9199 50.2884 38.0872 54.121 33.3593 54.121C28.6315 54.121 24.7988 50.2884 24.7988 45.5605C24.7988 40.8327 28.6315 37 33.3593 37C38.0872 37 41.9199 40.8327 41.9199 45.5605Z" fill="#121214" stroke="#121214" stroke-width="2"/>
<path d="M75.6396 48.375V25.625H82.6396C84.6396 25.625 86.4261 26.0781 87.999 26.9844C89.5824 27.8802 90.8167 29.1615 91.7021 30.8281C92.5876 32.4844 93.0303 34.3698 93.0303 36.4844V37.5312C93.0303 39.6458 92.5928 41.526 91.7178 43.1719C90.8532 44.8177 89.6292 46.0938 88.0459 47C86.4626 47.9062 84.6761 48.3646 82.6865 48.375H75.6396ZM80.3271 29.4219V44.6094H82.5928C84.4261 44.6094 85.8271 44.0104 86.7959 42.8125C87.7646 41.6146 88.2594 39.901 88.2803 37.6719V36.4688C88.2803 34.1562 87.8011 32.4062 86.8428 31.2188C85.8844 30.0208 84.4834 29.4219 82.6396 29.4219H80.3271Z" fill="#121214"/>
<path d="M103.617 48.6875C101.137 48.6875 99.1165 47.9271 97.554 46.4062C96.0019 44.8854 95.2259 42.8594 95.2259 40.3281V39.8906C95.2259 38.1927 95.554 36.6771 96.2103 35.3438C96.8665 34 97.7936 32.9688 98.9915 32.25C100.2 31.5208 101.575 31.1562 103.117 31.1562C105.429 31.1562 107.247 31.8854 108.57 33.3438C109.903 34.8021 110.57 36.8698 110.57 39.5469V41.3906H99.804C99.9499 42.4948 100.387 43.3802 101.117 44.0469C101.856 44.7135 102.788 45.0469 103.913 45.0469C105.653 45.0469 107.012 44.4167 107.992 43.1562L110.21 45.6406C109.533 46.599 108.617 47.349 107.46 47.8906C106.304 48.4219 105.023 48.6875 103.617 48.6875ZM103.101 34.8125C102.205 34.8125 101.476 35.1146 100.913 35.7188C100.361 36.3229 100.007 37.1875 99.8509 38.3125H106.132V37.9531C106.111 36.9531 105.84 36.1823 105.32 35.6406C104.799 35.0885 104.059 34.8125 103.101 34.8125Z" fill="#121214"/>
<path d="M118.937 42.8594L122.078 31.4688H126.797L121.093 48.375H116.781L111.078 31.4688H115.797L118.937 42.8594Z" fill="#121214"/>
<path d="M140.57 42.4062C140.57 41.5208 140.258 40.8438 139.633 40.375C139.008 39.8958 137.883 39.3958 136.258 38.875C134.633 38.3438 133.346 37.8229 132.398 37.3125C129.815 35.9167 128.523 34.0365 128.523 31.6719C128.523 30.4427 128.867 29.349 129.555 28.3906C130.253 27.4219 131.247 26.6667 132.539 26.125C133.841 25.5833 135.299 25.3125 136.914 25.3125C138.539 25.3125 139.987 25.6094 141.258 26.2031C142.529 26.7865 143.513 27.6146 144.211 28.6875C144.919 29.7604 145.273 30.9792 145.273 32.3438H140.586C140.586 31.3021 140.258 30.4948 139.602 29.9219C138.945 29.3385 138.023 29.0469 136.836 29.0469C135.69 29.0469 134.799 29.2917 134.164 29.7812C133.529 30.2604 133.211 30.8958 133.211 31.6875C133.211 32.4271 133.581 33.0469 134.32 33.5469C135.07 34.0469 136.169 34.5156 137.617 34.9531C140.284 35.7552 142.227 36.75 143.445 37.9375C144.664 39.125 145.273 40.6042 145.273 42.375C145.273 44.3438 144.529 45.8906 143.039 47.0156C141.549 48.1302 139.544 48.6875 137.023 48.6875C135.273 48.6875 133.68 48.3698 132.242 47.7344C130.805 47.0885 129.706 46.2083 128.945 45.0938C128.195 43.9792 127.82 42.6875 127.82 41.2188H132.523C132.523 43.7292 134.023 44.9844 137.023 44.9844C138.138 44.9844 139.008 44.7604 139.633 44.3125C140.258 43.8542 140.57 43.2188 140.57 42.4062Z" fill="#121214"/>
<path d="M162.547 42.2344L164.766 31.4688H169.125L164.813 48.375H161.032L157.828 37.7344L154.625 48.375H150.86L146.547 31.4688H150.907L153.11 42.2188L156.203 31.4688H159.469L162.547 42.2344Z" fill="#121214"/>
<path d="M180.852 48.375C180.644 47.9688 180.493 47.4635 180.399 46.8594C179.305 48.0781 177.883 48.6875 176.133 48.6875C174.477 48.6875 173.102 48.2083 172.008 47.25C170.925 46.2917 170.383 45.0833 170.383 43.625C170.383 41.8333 171.045 40.4583 172.368 39.5C173.701 38.5417 175.623 38.0573 178.133 38.0469H180.212V37.0781C180.212 36.2969 180.008 35.6719 179.602 35.2031C179.206 34.7344 178.576 34.5 177.712 34.5C176.951 34.5 176.352 34.6823 175.915 35.0469C175.488 35.4115 175.274 35.9115 175.274 36.5469H170.758C170.758 35.5677 171.06 34.6615 171.665 33.8281C172.269 32.9948 173.123 32.3438 174.227 31.875C175.331 31.3958 176.571 31.1562 177.946 31.1562C180.029 31.1562 181.68 31.6823 182.899 32.7344C184.128 33.776 184.743 35.2448 184.743 37.1406V44.4688C184.753 46.0729 184.977 47.2865 185.415 48.1094V48.375H180.852ZM177.118 45.2344C177.784 45.2344 178.399 45.0885 178.962 44.7969C179.524 44.4948 179.941 44.0938 180.212 43.5938V40.6875H178.524C176.264 40.6875 175.06 41.4688 174.915 43.0312L174.899 43.2969C174.899 43.8594 175.097 44.3229 175.493 44.6875C175.889 45.0521 176.43 45.2344 177.118 45.2344Z" fill="#121214"/>
<path d="M193.298 27.3125V31.4688H196.188V34.7812H193.298V43.2188C193.298 43.8438 193.418 44.2917 193.657 44.5625C193.897 44.8333 194.355 44.9688 195.032 44.9688C195.532 44.9688 195.975 44.9323 196.36 44.8594V48.2812C195.475 48.5521 194.563 48.6875 193.626 48.6875C190.459 48.6875 188.845 47.0885 188.782 43.8906V34.7812H186.313V31.4688H188.782V27.3125H193.298Z" fill="#121214"/>
</svg>