<svg xmlns="http://www.w3.org/2000/svg" fill="none" viewBox="15.26 12.62 163.25 37.74">
<path d="M16.085 40.517C16.085 35.5336 20.1248 31.4938 25.1082 31.4938H34.6783V49.5403H25.1082C20.1248 49.5403 16.085 45.5004 16.085 40.517V40.517Z" fill="#71C23E" stroke="#121214" stroke-width="1.64831"/>
<path d="M43.7012 40.5349C43.7012 35.5515 47.741 31.4938 52.7244 31.4938H62.2945V39.9345C62.2945 45.2396 57.9939 49.5403 52.6887 49.5403V49.5403C47.725 49.5403 43.7012 45.4986 43.7012 40.5349V40.5349Z" fill="#01A6BC" stroke="#121214" stroke-width="1.64831"/>
<path d="M34.6777 22.4885C34.6777 17.5051 30.6379 13.4474 25.6545 13.4474H16.0844V21.8881C16.0844 27.1932 20.385 31.4939 25.6902 31.4939V31.4939C30.6539 31.4939 34.6777 27.4522 34.6777 22.4885V22.4885Z" fill="#FA547C" stroke="#121214" stroke-width="1.64831"/>
<path d="M52.7242 22.4706C52.7242 27.454 48.6844 31.4939 43.701 31.4939C38.7176 31.4939 34.6777 27.454 34.6777 22.4706C34.6777 17.4872 38.7176 13.4474 43.701 13.4474C48.6844 13.4474 52.7242 17.4872 52.7242 22.4706Z" fill="#FAA525" stroke="#121214" stroke-width="1.64831"/>
<path d="M62.2939 22.4706C62.2939 17.4872 58.2541 13.4474 53.2707 13.4474H43.7006V31.4939H53.2707C58.2541 31.4939 62.2939 27.454 62.2939 22.4706V22.4706Z" fill="#FFD800" stroke="#121214" stroke-width="1.64831"/>
<path d="M43.7008 40.517C43.7008 45.5004 39.6609 49.5403 34.6775 49.5403C29.6941 49.5403 25.6543 45.5004 25.6543 40.517C25.6543 35.5336 29.6941 31.4938 34.6775 31.4938C39.6609 31.4938 43.7008 35.5336 43.7008 40.517Z" fill="#121214" stroke="#121214" stroke-width="1.64831"/>
<path d="M79.0137 40.8685V22.119H84.7828C86.4311 22.119 87.9034 22.4924 89.1997 23.2393C90.5046 23.9776 91.522 25.0336 92.2517 26.4072C92.9814 27.7722 93.3463 29.3261 93.3463 31.0688V31.9316C93.3463 33.6744 92.9857 35.2239 92.2646 36.5804C91.552 37.9368 90.5433 38.9884 89.2384 39.7353C87.9334 40.4822 86.4611 40.86 84.8214 40.8685H79.0137ZM82.8769 25.2482V37.7651H84.7441C86.2551 37.7651 87.4098 37.2714 88.2082 36.2842C89.0066 35.2969 89.4143 33.8847 89.4315 32.0475V31.0559C89.4315 29.1501 89.0366 27.7078 88.2468 26.7291C87.457 25.7419 86.3023 25.2482 84.7828 25.2482H82.8769Z" fill="#121214"/>
<path d="M102.071 41.1261C100.028 41.1261 98.3623 40.4994 97.0745 39.246C95.7954 37.9926 95.1558 36.3228 95.1558 34.2367V33.8761C95.1558 32.4767 95.4262 31.2276 95.9671 30.1288C96.5079 29.0213 97.272 28.1714 98.2593 27.579C99.2551 26.9781 100.388 26.6776 101.659 26.6776C103.565 26.6776 105.063 27.2786 106.153 28.4805C107.252 29.6823 107.801 31.3865 107.801 33.5928V35.1123H98.9289C99.0491 36.0223 99.4096 36.7521 100.011 37.3015C100.62 37.8509 101.388 38.1257 102.316 38.1257C103.749 38.1257 104.87 37.6063 105.677 36.5675L107.505 38.615C106.947 39.4048 106.192 40.0229 105.239 40.4693C104.286 40.9072 103.23 41.1261 102.071 41.1261ZM101.646 29.6909C100.908 29.6909 100.307 29.9399 99.8432 30.4378C99.3882 30.9358 99.0963 31.6483 98.9675 32.5755H104.144V32.2793C104.127 31.4551 103.904 30.8199 103.475 30.3734C103.045 29.9184 102.436 29.6909 101.646 29.6909Z" fill="#121214"/>
<path d="M114.698 36.3228L117.286 26.9352H121.175L116.475 40.8685H112.92L108.22 26.9352H112.109L114.698 36.3228Z" fill="#121214"/>
<path d="M132.527 35.9494C132.527 35.2196 132.269 34.6616 131.754 34.2753C131.239 33.8804 130.312 33.4683 128.972 33.0391C127.633 32.6012 126.573 32.172 125.792 31.7513C123.663 30.6009 122.598 29.0514 122.598 27.1026C122.598 26.0895 122.881 25.1881 123.448 24.3983C124.023 23.5999 124.843 22.9775 125.908 22.5311C126.981 22.0847 128.183 21.8615 129.513 21.8615C130.853 21.8615 132.046 22.1061 133.093 22.5955C134.141 23.0762 134.952 23.7587 135.527 24.643C136.111 25.5272 136.403 26.5317 136.403 27.6563H132.54C132.54 26.7978 132.269 26.1325 131.728 25.6603C131.187 25.1795 130.428 24.9392 129.449 24.9392C128.505 24.9392 127.771 25.1409 127.247 25.5444C126.723 25.9393 126.461 26.463 126.461 27.1154C126.461 27.725 126.766 28.2358 127.376 28.6479C127.994 29.0599 128.899 29.4463 130.093 29.8068C132.291 30.4679 133.892 31.2877 134.896 32.2664C135.901 33.2451 136.403 34.4642 136.403 35.9236C136.403 37.5462 135.789 38.821 134.561 39.7482C133.334 40.6668 131.681 41.1261 129.603 41.1261C128.161 41.1261 126.848 40.8643 125.663 40.3406C124.478 39.8083 123.573 39.0829 122.946 38.1643C122.328 37.2457 122.019 36.1812 122.019 34.9707H125.895C125.895 37.0397 127.131 38.0741 129.603 38.0741C130.522 38.0741 131.239 37.8896 131.754 37.5204C132.269 37.1427 132.527 36.619 132.527 35.9494Z" fill="#121214"/>
<path d="M150.639 35.8077L152.468 26.9352H156.06L152.506 40.8685H149.39L146.75 32.099L144.11 40.8685H141.007L137.453 26.9352H141.045L142.861 35.7948L145.411 26.9352H148.102L150.639 35.8077Z" fill="#121214"/>
<path d="M165.725 40.8685C165.553 40.5337 165.429 40.1174 165.352 39.6194C164.45 40.6239 163.278 41.1261 161.836 41.1261C160.471 41.1261 159.338 40.7312 158.437 39.9414C157.544 39.1516 157.097 38.1557 157.097 36.9538C157.097 35.4772 157.642 34.344 158.733 33.5542C159.832 32.7643 161.416 32.3651 163.484 32.3566H165.197V31.5582C165.197 30.9143 165.03 30.3992 164.695 30.0129C164.369 29.6265 163.849 29.4334 163.137 29.4334C162.51 29.4334 162.016 29.5836 161.656 29.8841C161.304 30.1846 161.128 30.5966 161.128 31.1203H157.406C157.406 30.3133 157.655 29.5664 158.153 28.8797C158.651 28.1929 159.355 27.6563 160.265 27.27C161.175 26.8751 162.197 26.6776 163.33 26.6776C165.047 26.6776 166.408 27.1112 167.412 27.9782C168.425 28.8367 168.932 30.0472 168.932 31.6097V37.6492C168.94 38.9713 169.125 39.9714 169.485 40.6496V40.8685H165.725ZM162.647 38.2802C163.197 38.2802 163.703 38.16 164.167 37.9196C164.631 37.6706 164.974 37.3401 165.197 36.9281V34.5328H163.806C161.943 34.5328 160.952 35.1767 160.832 36.4645L160.819 36.6834C160.819 37.147 160.982 37.529 161.308 37.8295C161.634 38.1299 162.081 38.2802 162.647 38.2802Z" fill="#121214"/>
<path d="M175.982 23.5098V26.9352H178.365V29.6652H175.982V36.619C175.982 37.1341 176.081 37.5032 176.278 37.7265C176.476 37.9497 176.854 38.0613 177.412 38.0613C177.824 38.0613 178.189 38.0312 178.506 37.9711V40.7913C177.777 41.0145 177.025 41.1261 176.253 41.1261C173.643 41.1261 172.312 39.8083 172.261 37.1727V29.6652H170.226V26.9352H172.261V23.5098H175.982Z" fill="#121214"/>
</svg>