<svg width="360" height="116" fill="none" xmlns="http://www.w3.org/2000/svg"><path d="M25.09 71.42c0-6.694 5.426-12.12 12.12-12.12h12.932v24.238H37.209c-6.693 0-12.119-5.426-12.119-12.119z" fill="#71C23E" stroke="#121214" stroke-width="2.6"/><path d="M66.16 71.446c0-6.697 5.43-12.146 12.12-12.146h12.932v11.253c0 7.172-5.814 12.985-12.986 12.985-6.66 0-12.066-5.425-12.066-12.092z" fill="#01A6BC" stroke="#121214" stroke-width="2.6"/><path d="M50.141 44.607c0-6.696-5.429-12.145-12.119-12.145H25.09v11.252c0 7.172 5.814 12.986 12.985 12.986 6.66 0 12.066-5.425 12.066-12.093z" fill="#FA547C" stroke="#121214" stroke-width="2.6"/><path d="M76.98 44.58c0 6.694-5.426 12.12-12.12 12.12-6.693 0-12.119-5.426-12.119-12.12 0-6.692 5.426-12.118 12.12-12.118 6.693 0 12.119 5.426 12.119 12.119z" fill="#FAA525" stroke="#121214" stroke-width="2.6"/><path d="M91.213 44.58c0-6.692-5.426-12.118-12.12-12.118H66.162V56.7h12.933c6.693 0 12.119-5.426 12.119-12.12z" fill="#FFD800" stroke="#121214" stroke-width="2.6"/><path d="M63.56 71.42c0 6.692-5.425 12.118-12.118 12.118-6.694 0-12.12-5.426-12.12-12.119S44.748 59.3 51.442 59.3c6.693 0 12.119 5.426 12.119 12.12z" fill="#121214" stroke="#121214" stroke-width="2.6"/><path d="M136.919 39.04c5.787 0 10.211 1.605 13.272 4.816 3.099 3.21 4.648 7.765 4.648 13.664s-1.549 10.453-4.648 13.664C147.13 74.394 142.706 76 136.919 76h-15.68V39.04h15.68zm-.952 29.68c3.136 0 5.414-.933 6.832-2.8 1.456-1.904 2.184-4.704 2.184-8.4 0-3.696-.728-6.477-2.184-8.344-1.418-1.904-3.696-2.856-6.832-2.856h-5.096v22.4h5.096zm37.9 7.84c-3.099 0-5.787-.579-8.064-1.736-2.24-1.157-3.976-2.819-5.208-4.984-1.232-2.165-1.848-4.779-1.848-7.84s.616-5.675 1.848-7.84a12.5 12.5 0 015.152-4.984c2.24-1.157 4.797-1.736 7.672-1.736 2.949 0 5.45.579 7.504 1.736 2.09 1.12 3.677 2.688 4.76 4.704 1.082 1.979 1.624 4.256 1.624 6.832 0 .672-.019 1.344-.056 2.016a16.208 16.208 0 01-.168 1.68h-22.176v-5.096h17.976l-4.536 1.736c0-2.24-.411-3.957-1.232-5.152-.784-1.195-2.016-1.792-3.696-1.792-1.195 0-2.222.28-3.08.84-.822.56-1.456 1.437-1.904 2.632-.411 1.195-.616 2.725-.616 4.592 0 1.83.242 3.323.728 4.48.485 1.12 1.176 1.941 2.072 2.464.896.485 1.978.728 3.248.728 1.418 0 2.538-.28 3.36-.84.858-.56 1.493-1.344 1.904-2.352l7.616 2.52c-.523 1.605-1.438 2.968-2.744 4.088-1.27 1.083-2.8 1.904-4.592 2.464-1.755.56-3.603.84-5.544.84zM209.397 48h9.856l-10.08 28h-11.368l-10.08-28h10.024l5.768 21.336L209.397 48zm27.751-9.52c3.435 0 6.459.541 9.072 1.624a18.902 18.902 0 016.888 4.648l-4.648 6.216c-1.605-1.68-3.341-2.93-5.208-3.752-1.829-.859-3.92-1.288-6.272-1.288-1.381 0-2.501.15-3.36.448-.859.299-1.475.71-1.848 1.232a3.008 3.008 0 00-.56 1.792c0 .784.355 1.456 1.064 2.016.747.523 1.941.97 3.584 1.344l6.216 1.4c3.696.859 6.403 2.11 8.12 3.752 1.717 1.643 2.576 3.827 2.576 6.552 0 2.613-.672 4.835-2.016 6.664-1.344 1.792-3.192 3.155-5.544 4.088-2.352.896-5.04 1.344-8.064 1.344-2.464 0-4.816-.261-7.056-.784-2.24-.56-4.256-1.344-6.048-2.352-1.792-1.008-3.304-2.165-4.536-3.472l4.648-6.44c.933 1.083 2.072 2.053 3.416 2.912a20.119 20.119 0 004.48 1.96c1.643.485 3.304.728 4.984.728 1.307 0 2.389-.13 3.248-.392.896-.261 1.549-.653 1.96-1.176.411-.523.616-1.139.616-1.848 0-.784-.28-1.437-.84-1.96-.56-.56-1.624-1.027-3.192-1.4l-6.832-1.512c-2.091-.485-3.957-1.12-5.6-1.904-1.605-.821-2.875-1.904-3.808-3.248-.933-1.381-1.4-3.099-1.4-5.152 0-2.315.635-4.368 1.904-6.16 1.269-1.83 3.099-3.267 5.488-4.312 2.389-1.045 5.245-1.568 8.568-1.568zM294.242 48h9.968l-8.456 28H284.33l-5.096-17.192L274.306 76h-11.368l-8.512-28h10.024l4.704 20.664L274.642 48h9.408l5.432 20.664L294.242 48zm28.477 10.248c0-1.307-.373-2.333-1.12-3.08-.709-.784-1.68-1.176-2.912-1.176s-2.296.317-3.192.952c-.858.597-1.456 1.68-1.792 3.248l-8.064-1.904c.523-2.688 1.904-4.835 4.144-6.44 2.24-1.605 5.395-2.408 9.464-2.408 2.726 0 5.04.41 6.944 1.232 1.942.784 3.416 1.979 4.424 3.584 1.046 1.568 1.568 3.51 1.568 5.824v10.248c0 1.456.654 2.184 1.96 2.184.672 0 1.214-.075 1.624-.224l-.56 5.432c-1.12.523-2.482.784-4.088.784-1.456 0-2.744-.224-3.864-.672-1.12-.485-1.997-1.195-2.632-2.128-.634-.97-.952-2.184-.952-3.64v-.336l1.064-.392c0 1.605-.485 2.95-1.456 4.032-.933 1.083-2.165 1.885-3.696 2.408a14.132 14.132 0 01-4.704.784c-1.904 0-3.565-.299-4.984-.896-1.418-.597-2.52-1.456-3.304-2.576-.746-1.157-1.12-2.576-1.12-4.256 0-2.016.598-3.677 1.792-4.984 1.232-1.344 3.155-2.277 5.768-2.8l10.584-2.184-.056 5.04-5.376 1.12c-1.12.224-1.96.56-2.52 1.008-.522.41-.784 1.045-.784 1.904 0 .821.299 1.437.896 1.848.598.41 1.307.616 2.128.616a5.62 5.62 0 001.792-.28 4.525 4.525 0 001.568-.84 4.42 4.42 0 001.064-1.512c.262-.597.392-1.307.392-2.128v-7.392zm26.856-19.152v26.936c0 1.344.318 2.315.952 2.912.672.56 1.587.84 2.744.84.896 0 1.662-.093 2.296-.28a5.877 5.877 0 001.792-.952l1.008 5.88c-.933.672-2.109 1.195-3.528 1.568-1.418.373-2.874.56-4.368.56-2.128 0-3.976-.299-5.544-.896-1.53-.597-2.725-1.55-3.584-2.856-.821-1.307-1.25-3.043-1.288-5.208V41.728l9.52-2.632zM357.919 48v6.776h-22.68V48h22.68z" fill="#121214"/></svg>