<?xml version="1.0" standalone="no"?>
<!DOCTYPE svg PUBLIC "-//W3C//DTD SVG 20010904//EN"
 "http://www.w3.org/TR/2001/REC-SVG-20010904/DTD/svg10.dtd">
<svg version="1.0" xmlns="http://www.w3.org/2000/svg"
 width="402.000000pt" height="402.000000pt" viewBox="0 0 402.000000 402.000000"
 preserveAspectRatio="xMidYMid meet">
<metadata>
Created by potrace 1.14, written by Peter Selinger 2001-2017
</metadata>
<g transform="translate(0.000000,402.000000) scale(0.100000,-0.100000)"
fill="#000000" stroke="none">
<path d="M2 3138 c5 -494 7 -510 93 -676 125 -243 322 -387 615 -450 l45 -10
-41 -1 c-67 -2 -194 -38 -279 -80 -196 -97 -344 -279 -407 -497 -29 -101 -31
-293 -4 -394 57 -215 213 -407 411 -505 164 -82 148 -80 765 -80 618 0 600 -2
770 82 81 39 108 60 190 142 55 56 111 123 133 161 44 77 84 193 95 275 l7 60
18 -89 c33 -165 102 -294 221 -411 263 -260 662 -299 986 -97 139 86 278 251
330 390 54 145 54 138 58 604 l3 438 -348 2 -348 3 80 18 c45 10 126 41 185
70 92 44 116 62 195 141 127 128 190 244 221 402 81 425 -190 832 -612 919
-110 23 -1031 22 -1142 -1 -247 -51 -450 -213 -556 -446 -33 -71 -65 -189 -67
-245 0 -15 -7 4 -14 44 -60 334 -296 581 -617 647 -64 13 -155 16 -533 16
l-456 0 3 -432z m2388 -349 l0 -682 -63 6 c-259 24 -487 207 -572 458 -117
350 66 730 411 856 65 23 141 39 197 42 l27 1 0 -681z m978 665 c241 -48 431
-222 514 -469 19 -59 23 -90 23 -200 -1 -119 -3 -137 -31 -216 -71 -201 -222
-353 -426 -427 l-73 -27 -437 -3 -438 -3 0 681 0 680 395 0 c318 0 411 -3 473
-16z m-1698 -951 c85 -211 266 -383 482 -459 l83 -29 435 -4 435 -3 -94 -24
c-313 -78 -533 -303 -596 -609 -18 -87 -25 -104 -25 -59 -1 103 -84 297 -174
406 -102 123 -254 219 -410 258 -72 18 -114 20 -485 21 l-406 1 93 23 c314 80
546 326 595 631 l11 74 13 -76 c7 -42 27 -110 43 -151z m-516 -647 c-221 -165
-336 -408 -321 -676 7 -112 19 -168 59 -266 51 -123 171 -269 283 -343 l50
-33 -280 5 c-225 3 -292 8 -340 22 -179 51 -346 187 -423 345 -56 114 -75 194
-75 310 1 268 141 494 378 610 128 63 166 68 464 69 l263 1 -58 -44z"/>
</g>
</svg>
