<svg width="24" height="24" xmlns="http://www.w3.org/2000/svg"><path d="M8 16a2 2 0 102 2 2.002 2.002 0 00-2-2zm0 3a1 1 0 111-1 1.001 1.001 0 01-1 1zm10-3a2 2 0 102 2 2.002 2.002 0 00-2-2zm0 3a1 1 0 111-1 1.001 1.001 0 01-1 1zm3.75-12.224l-.555 5A2.498 2.498 0 0118.71 14H8.5A2.503 2.503 0 016 11.5v-5A1.502 1.502 0 004.5 5h-2a.5.5 0 010-1h2A2.503 2.503 0 017 6.5v5A1.502 1.502 0 008.5 13h10.21a1.499 1.499 0 001.49-1.335l.556-5a1.502 1.502 0 00-.373-1.166A1.482 1.482 0 0019.266 5H10.5a.5.5 0 010-1h8.766a2.5 2.5 0 012.485 2.776z" id="cart"/></svg>