<svg width="1920" height="758" fill="none" xmlns="http://www.w3.org/2000/svg"><path d="M0 754.203h231.5V549.507H0v204.696zm564.34-210.302h216.484v-115.75H564.34v115.75z" fill="#71C23E" stroke="#121214" stroke-width="6"/><path d="M0 429.454h231.5V195.158H0v234.296zm1476.45 324.748h94.95v-96.096h-94.95v96.096z" fill="#FFD800" stroke="#121214" stroke-width="6"/><path d="M232.876 429.453v115.75l231.5 115.75v-115.75l-231.5-115.75z" fill="#01A6BC" stroke="#121214" stroke-width="6"/><path d="M232.876 313.704v115.75l231.5 115.75v-115.75l-231.5-115.75z" fill="#FA547C" stroke="#121214" stroke-width="6"/><path d="M705.852 429.455v-115.75l231.5-115.75v115.75l-231.5 115.75z" fill="#FAA525" stroke="#121214" stroke-width="6"/><path d="M1267.95 754.203h104.25c20.62 0 40.77-6.167 57.92-17.721 17.14-11.554 30.5-27.977 38.39-47.191a106.02 106.02 0 005.94-60.753c-4.03-20.398-13.96-39.134-28.53-53.839-14.58-14.706-33.16-24.721-53.38-28.778a103.438 103.438 0 00-60.24 5.984c-19.04 7.958-35.33 21.436-46.78 38.728-11.46 17.292-17.57 37.622-17.57 58.419v105.151z" fill="#FA547C" stroke="#121214" stroke-width="6"/><path d="M922.336 543.901h105.204c20.8 0 41.14-6.131 58.44-17.618 17.3-11.487 30.79-27.815 38.75-46.917a103.95 103.95 0 005.99-60.402c-4.06-20.28-14.08-38.907-28.79-53.528a105.446 105.446 0 00-53.87-28.611 105.815 105.815 0 00-60.782 5.949c-19.223 7.913-35.653 21.312-47.212 38.504a104.075 104.075 0 00-17.73 58.081v104.542z" fill="#FAA525" stroke="#121214" stroke-width="6"/><path d="M1239.25 334.816h104.25c20.62 0 40.78 6.132 57.92 17.619a104.447 104.447 0 0138.4 46.917 104.84 104.84 0 015.93 60.402 104.615 104.615 0 01-28.53 53.528 104.184 104.184 0 01-53.38 28.611 103.975 103.975 0 01-60.23-5.95 104.346 104.346 0 01-46.79-38.503 104.796 104.796 0 01-17.57-58.081V334.816z" fill="#FFD800" stroke="#121214" stroke-width="6"/><path d="M1049.26 543.901h108.24c28.71 0 56.24 11.079 76.54 30.799 20.3 19.719 31.71 46.465 31.71 74.353 0 27.888-11.41 54.634-31.71 74.353-20.3 19.72-47.83 30.799-76.54 30.799h-108.24V543.901z" fill="#71C23E" stroke="#121214" stroke-width="6"/><path d="M922.336 543.901H814.094c-28.708 0-56.239 11.079-76.539 30.799-20.299 19.719-31.703 46.465-31.703 74.353 0 27.888 11.404 54.634 31.703 74.353 20.3 19.72 47.831 30.799 76.539 30.799h108.242V543.901zm993.744-9.67h-122.05c-32.37 0-63.42 11.588-86.31 32.215-22.89 20.626-35.74 48.602-35.74 77.772 0 29.17 12.85 57.146 35.74 77.772 22.89 20.627 53.94 32.215 86.31 32.215h122.05V534.231z" fill="#01A6BC" stroke="#121214" stroke-width="6"/><circle cx="989.488" cy="245.775" r="47.82" fill="#FFD800" stroke="#121214" stroke-width="6"/><circle cx="236.392" cy="147.339" r="47.82" fill="#71C23E" stroke="#121214" stroke-width="6"/><circle cx="1827.21" cy="486.134" r="47.82" fill="#71C23E" stroke="#121214" stroke-width="6"/><circle cx="456.89" cy="706.384" r="47.82" fill="#C5C6C7" stroke="#121214" stroke-width="6"/><circle cx="720.402" cy="249.784" r="47.82" fill="#C5C6C7" stroke="#121214" stroke-width="6"/><circle cx="1821.32" cy="51.684" r="47.82" fill="#FAA525" stroke="#121214" stroke-width="6"/><circle cx="1512.82" cy="245.775" r="47.82" fill="#FA547C" stroke="#121214" stroke-width="6"/><circle cx="1075.36" cy="293.595" r="47.82" fill="#FFD800" stroke="#121214" stroke-width="6"/><circle cx="1821.32" cy="147.338" r="47.82" fill="#FFD800" stroke="#121214" stroke-width="6"/><path d="M1779.39 534.232V293.595l-121.64 110.172-121.63-110.172v240.637h243.27z" fill="#71C23E" stroke="#121214" stroke-width="6"/><path d="M1875.03 195.158v204.891h-95.39V292.386h-107.66v-97.228h203.05z" fill="#FFD800" stroke="#121214" stroke-width="6"/></svg>