<svg width="374" height="773" fill="none" xmlns="http://www.w3.org/2000/svg"><path d="M1.95 515.865h126.187V404.288H1.95v111.577zm252.375-114.632h118.003v-63.094H254.325v63.094z" fill="#71C23E" stroke="#121214" stroke-width="3.75"/><path d="M1.95 338.85h126.187V211.138H1.95V338.85z" fill="#FFD800" stroke="#121214" stroke-width="3.75"/><path d="M270.521 238.729h51.756v-52.38h-51.756v52.38zm-142.383 100.12v63.094l126.187 63.094v-63.094l-126.187-63.094z" fill="#01A6BC" stroke="#121214" stroke-width="3.75"/><path d="M128.138 275.756v63.093l126.187 63.094v-63.094l-126.187-63.093z" fill="#FA547C" stroke="#121214" stroke-width="3.75"/><path d="M254.325 338.85v-63.093l126.187-63.094v63.094L254.325 338.85z" fill="#FAA525" stroke="#121214" stroke-width="3.75"/><path d="M156.87 284.966h56.825a56.482 56.482 0 0031.571-9.66 57.214 57.214 0 0020.929-25.723 57.781 57.781 0 003.234-33.116 57.47 57.47 0 00-15.552-29.346 56.68 56.68 0 00-29.096-15.687 56.379 56.379 0 00-32.832 3.262 56.931 56.931 0 00-25.502 21.11 57.67 57.67 0 00-9.577 31.843v57.317z" fill="#FFD800" stroke="#121214" stroke-width="3.75"/><path d="M1.95 655.932h57.344a57.598 57.598 0 0031.858-9.604 57.061 57.061 0 0021.12-25.573 56.655 56.655 0 003.264-32.925 56.88 56.88 0 00-15.694-29.177 57.46 57.46 0 00-29.361-15.595 57.677 57.677 0 00-33.132 3.243 57.268 57.268 0 00-25.735 20.988 56.73 56.73 0 00-9.664 31.659v56.984z" fill="#FAA525" stroke="#121214" stroke-width="3.75"/><path d="M119.953 596.409h56.825a56.718 56.718 0 0131.571 9.603 56.961 56.961 0 0120.929 25.574 57.138 57.138 0 013.234 32.924 57.036 57.036 0 01-15.552 29.177 56.776 56.776 0 01-29.096 15.596 56.676 56.676 0 01-32.832-3.243 56.861 56.861 0 01-25.502-20.988 57.098 57.098 0 01-9.577-31.659v-56.984z" fill="#FA547C" stroke="#121214" stroke-width="3.75"/><path d="M1.95 655.932h59.001c15.648 0 30.655 6.039 41.72 16.788 11.065 10.749 17.281 25.327 17.281 40.529 0 15.201-6.216 29.78-17.281 40.529-11.065 10.749-26.072 16.787-41.72 16.787h-59V655.932z" fill="#71C23E" stroke="#121214" stroke-width="3.75"/><path d="M372.326 401.233h-59.001c-15.648 0-30.655 6.039-41.72 16.788-11.065 10.748-17.281 25.327-17.281 40.529 0 15.201 6.216 29.78 17.281 40.528 11.065 10.749 26.072 16.788 41.72 16.788h59.001V401.233zm.001 249.428h-66.528c-17.645 0-34.566 6.316-47.043 17.559-12.476 11.243-19.486 26.492-19.486 42.393 0 15.9 7.01 31.149 19.486 42.392 12.477 11.243 29.398 17.56 47.043 17.56h66.528V650.661z" fill="#01A6BC" stroke="#121214" stroke-width="3.75"/><circle cx="121.846" cy="543.33" r="26.066" fill="#FFD800" stroke="#121214" stroke-width="3.75"/><circle cx="30.366" cy="132.933" r="26.066" fill="#C5C6C7" stroke="#121214" stroke-width="3.75"/><circle cx="351.55" cy="195.097" r="26.066" fill="#71C23E" stroke="#121214" stroke-width="3.75"/><circle cx="233.366" cy="489.8" r="26.066" fill="#C5C6C7" stroke="#121214" stroke-width="3.75"/><circle cx="28.016" cy="185.071" r="26.066" fill="#FAA525" stroke="#121214" stroke-width="3.75"/><circle cx="213.695" cy="744.5" r="26.066" fill="#FAA525" stroke="#121214" stroke-width="3.75"/><circle cx="262.509" cy="158.999" r="26.066" fill="#FA547C" stroke="#121214" stroke-width="3.75"/><circle cx="189.509" cy="570.343" r="26.066" fill="#FFD800" stroke="#121214" stroke-width="3.75"/><circle cx="348.341" cy="28.937" r="26.066" fill="#FFD800" stroke="#121214" stroke-width="3.75"/><path d="M372.327 650.378V519.21l-66.302 60.053-66.301-60.053v131.168h132.603z" fill="#71C23E" stroke="#121214" stroke-width="3.75"/><path d="M377.615 55.004v111.683h-51.994v-58.686h-58.685V55.004h110.679z" fill="#FFD800" stroke="#121214" stroke-width="3.75"/></svg>