<svg xmlns="http://www.w3.org/2000/svg" fill="none" viewBox="18.97 25.82 200.75 47.35"><path d="M19.97 60.834c0-6.261 5.076-11.337 11.338-11.337h12.024v22.674H31.308c-6.262 0-11.337-5.076-11.337-11.337v0z" fill="#71C23E" stroke="#121214" stroke-width="2"/><path d="M54.668 60.856c0-6.26 5.076-11.359 11.337-11.359h12.024v10.605c0 6.666-5.403 12.069-12.069 12.069v0c-6.236 0-11.292-5.078-11.292-11.315v0z" fill="#01A6BC" stroke="#121214" stroke-width="2"/><path d="M43.332 38.183c0-6.262-5.076-11.36-11.337-11.36H19.971v10.605c0 6.666 5.404 12.07 12.069 12.07v0c6.236 0 11.292-5.079 11.292-11.315v0z" fill="#FA547C" stroke="#121214" stroke-width="2"/><path d="M66.005 38.16c0 6.261-5.076 11.337-11.337 11.337S43.33 44.421 43.33 38.16s5.076-11.337 11.337-11.337S66.005 31.9 66.005 38.16z" fill="#FAA525" stroke="#121214" stroke-width="2"/><path d="M78.03 38.16c0-6.261-5.076-11.337-11.338-11.337H54.668v22.674h12.024c6.262 0 11.337-5.076 11.337-11.337v0z" fill="#FFD800" stroke="#121214" stroke-width="2"/><path d="M54.668 60.834c0 6.261-5.076 11.337-11.337 11.337s-11.337-5.076-11.337-11.337 5.076-11.337 11.337-11.337 11.337 5.076 11.337 11.337z" fill="#121214" stroke="#121214" stroke-width="2"/><path d="M99 60.872v-22.75h7c2 0 3.786.453 5.359 1.36 1.584.895 2.818 2.176 3.703 3.843.886 1.656 1.329 3.542 1.329 5.656v1.047c0 2.115-.438 3.995-1.313 5.64-.864 1.647-2.088 2.923-3.672 3.83-1.583.905-3.37 1.364-5.359 1.374H99zm4.688-18.953v15.187h2.265c1.833 0 3.235-.599 4.203-1.796.969-1.198 1.464-2.912 1.485-5.141v-1.203c0-2.313-.48-4.063-1.438-5.25-.958-1.198-2.359-1.797-4.203-1.797h-2.312zm23.289 19.266c-2.479 0-4.5-.76-6.063-2.282-1.552-1.52-2.328-3.547-2.328-6.078v-.437c0-1.698.328-3.214.985-4.547.656-1.344 1.583-2.375 2.781-3.094 1.208-.73 2.583-1.094 4.125-1.094 2.312 0 4.13.73 5.453 2.188 1.333 1.458 2 3.526 2 6.203v1.844h-10.766c.146 1.104.584 1.99 1.313 2.656.739.667 1.672 1 2.797 1 1.739 0 3.099-.63 4.078-1.89l2.219 2.484c-.677.958-1.594 1.708-2.75 2.25-1.157.53-2.438.797-3.844.797zm-.516-13.875c-.896 0-1.625.302-2.187.906-.552.604-.906 1.469-1.063 2.594h6.282v-.36c-.021-1-.292-1.77-.813-2.312-.521-.552-1.26-.828-2.219-.828zm15.837 8.046l3.14-11.39h4.719l-5.703 16.906h-4.313l-5.703-16.906h4.719l3.141 11.39zm21.633-.453c0-.885-.313-1.562-.938-2.03-.625-.48-1.75-.98-3.375-1.5-1.625-.532-2.911-1.053-3.859-1.563-2.584-1.396-3.875-3.277-3.875-5.641 0-1.23.344-2.323 1.031-3.281.698-.97 1.693-1.724 2.984-2.266 1.302-.542 2.761-.812 4.375-.812 1.625 0 3.073.296 4.344.89 1.271.583 2.255 1.412 2.953 2.485.709 1.072 1.063 2.291 1.063 3.656h-4.688c0-1.042-.328-1.85-.984-2.422-.656-.583-1.578-.875-2.766-.875-1.146 0-2.036.245-2.672.734-.635.48-.953 1.115-.953 1.907 0 .74.37 1.359 1.11 1.859.75.5 1.849.969 3.297 1.406 2.666.802 4.609 1.797 5.828 2.985 1.218 1.187 1.828 2.666 1.828 4.437 0 1.969-.745 3.516-2.235 4.64-1.489 1.115-3.494 1.673-6.015 1.673-1.75 0-3.344-.318-4.781-.954-1.438-.645-2.537-1.526-3.297-2.64-.75-1.115-1.125-2.406-1.125-3.875h4.703c0 2.51 1.5 3.765 4.5 3.765 1.114 0 1.984-.224 2.609-.671.625-.459.938-1.094.938-1.907zm21.977-.172l2.218-10.765h4.36l-4.313 16.906h-3.781l-3.203-10.64-3.203 10.64h-3.766l-4.312-16.906h4.359l2.203 10.75 3.094-10.75h3.265l3.079 10.765zm18.305 6.141c-.209-.406-.36-.911-.454-1.516-1.093 1.22-2.515 1.829-4.265 1.829-1.656 0-3.031-.48-4.125-1.438-1.084-.958-1.625-2.167-1.625-3.625 0-1.792.661-3.167 1.984-4.125 1.333-.958 3.255-1.443 5.766-1.453h2.078v-.969c0-.781-.203-1.406-.609-1.875-.396-.469-1.027-.703-1.891-.703-.761 0-1.359.182-1.797.547-.427.364-.641.864-.641 1.5h-4.515c0-.98.302-1.886.906-2.719.604-.833 1.458-1.484 2.563-1.953 1.104-.48 2.343-.719 3.718-.719 2.084 0 3.735.526 4.953 1.578 1.23 1.042 1.844 2.51 1.844 4.407v7.328c.011 1.604.235 2.817.672 3.64v.266h-4.562zm-3.735-3.14c.667 0 1.281-.146 1.844-.438.562-.302.979-.703 1.25-1.203v-2.906h-1.688c-2.26 0-3.463.78-3.609 2.343l-.016.266c0 .562.198 1.026.594 1.39.396.365.938.547 1.625.547zm16.18-17.922v4.156h2.891v3.312h-2.891v8.438c0 .625.12 1.073.36 1.344.239.27.697.406 1.375.406.5 0 .942-.037 1.328-.11v3.422a9.298 9.298 0 01-2.735.407c-3.166 0-4.781-1.6-4.843-4.797v-9.11h-2.469v-3.312h2.469V39.81h4.515z" fill="#121214"/></svg>