<svg xmlns="http://www.w3.org/2000/svg" fill="none" viewBox="15.26 12.62 163.25 37.74"><path d="M16.085 40.517a9.023 9.023 0 019.023-9.023h9.57V49.54h-9.57a9.023 9.023 0 01-9.023-9.023v0z" fill="#71C23E" stroke="#121214" stroke-width="1.648"/><path d="M43.701 40.535c0-4.983 4.04-9.041 9.023-9.041h9.57v8.44c0 5.306-4.3 9.606-9.605 9.606v0c-4.964 0-8.988-4.041-8.988-9.005v0z" fill="#01A6BC" stroke="#121214" stroke-width="1.648"/><path d="M34.678 22.488c0-4.983-4.04-9.04-9.023-9.04h-9.57v8.44c0 5.305 4.3 9.606 9.605 9.606v0c4.964 0 8.988-4.042 8.988-9.006v0z" fill="#FA547C" stroke="#121214" stroke-width="1.648"/><path d="M52.724 22.47a9.023 9.023 0 11-18.046 0 9.023 9.023 0 0118.046 0z" fill="#FAA525" stroke="#121214" stroke-width="1.648"/><path d="M62.294 22.47a9.023 9.023 0 00-9.023-9.023H43.7v18.047h9.57a9.023 9.023 0 009.023-9.023v0z" fill="#FFD800" stroke="#121214" stroke-width="1.648"/><path d="M43.7 40.517a9.023 9.023 0 11-18.046 0 9.023 9.023 0 0118.047 0z" fill="#121214" stroke="#121214" stroke-width="1.648"/><path d="M79.014 40.868V22.12h5.769c1.648 0 3.12.373 4.417 1.12 1.305.739 2.322 1.795 3.052 3.168.73 1.365 1.094 2.92 1.094 4.662v.863c0 1.742-.36 3.292-1.081 4.648a7.66 7.66 0 01-3.027 3.155c-1.305.747-2.777 1.125-4.417 1.133h-5.807zm3.863-15.62v12.517h1.867c1.511 0 2.666-.494 3.464-1.48.799-.988 1.206-2.4 1.224-4.237v-.992c0-1.906-.395-3.348-1.185-4.327-.79-.987-1.945-1.48-3.464-1.48h-1.906zm19.194 15.878c-2.043 0-3.709-.627-4.996-1.88-1.28-1.253-1.92-2.923-1.92-5.01v-.36c0-1.4.271-2.648.812-3.747.54-1.108 1.305-1.958 2.292-2.55.996-.6 2.129-.901 3.4-.901 1.906 0 3.404.6 4.494 1.802 1.099 1.202 1.648 2.907 1.648 5.113v1.52h-8.872c.12.91.48 1.64 1.082 2.188.609.55 1.377.825 2.305.825 1.433 0 2.554-.52 3.361-1.558l1.828 2.047c-.558.79-1.313 1.408-2.266 1.854-.953.438-2.009.657-3.168.657zm-.425-11.435c-.738 0-1.339.249-1.803.747-.455.498-.747 1.21-.876 2.137h5.177v-.296c-.017-.824-.24-1.46-.669-1.906-.43-.455-1.039-.682-1.829-.682zm13.052 6.632l2.588-9.388h3.889l-4.7 13.933h-3.555l-4.7-13.933h3.889l2.589 9.388zm17.829-.373c0-.73-.258-1.288-.773-1.675-.515-.395-1.442-.807-2.782-1.236-1.339-.438-2.399-.867-3.18-1.288-2.129-1.15-3.194-2.7-3.194-4.648 0-1.014.283-1.915.85-2.705.575-.798 1.395-1.42 2.46-1.867 1.073-.446 2.275-.67 3.605-.67 1.34 0 2.533.245 3.58.735 1.048.48 1.859 1.163 2.434 2.047.584.884.876 1.889.876 3.013h-3.863c0-.858-.271-1.523-.812-1.996-.541-.48-1.3-.72-2.279-.72-.944 0-1.678.2-2.202.604-.524.395-.786.919-.786 1.571 0 .61.305 1.12.915 1.533.618.412 1.523.798 2.717 1.159 2.198.66 3.799 1.48 4.803 2.46 1.005.978 1.507 2.197 1.507 3.657 0 1.622-.614 2.897-1.842 3.824-1.227.919-2.88 1.378-4.958 1.378-1.442 0-2.755-.262-3.94-.785-1.185-.533-2.09-1.258-2.717-2.177-.618-.918-.927-1.983-.927-3.193h3.876c0 2.069 1.236 3.103 3.708 3.103.919 0 1.636-.184 2.151-.554.515-.377.773-.901.773-1.57zm18.112-.142l1.829-8.873h3.592l-3.554 13.933h-3.116l-2.64-8.769-2.64 8.77h-3.103l-3.554-13.934h3.592l1.816 8.86 2.55-8.86h2.691l2.537 8.873zm15.086 5.06c-.172-.334-.296-.75-.373-1.249-.902 1.005-2.074 1.507-3.516 1.507-1.365 0-2.498-.395-3.399-1.185-.893-.79-1.34-1.785-1.34-2.987 0-1.477.545-2.61 1.636-3.4 1.099-.79 2.683-1.189 4.751-1.197h1.713v-.799c0-.644-.167-1.159-.502-1.545-.326-.387-.846-.58-1.558-.58-.627 0-1.121.15-1.481.451-.352.3-.528.713-.528 1.236h-3.722c0-.807.249-1.554.747-2.24.498-.687 1.202-1.224 2.112-1.61.91-.395 1.932-.592 3.065-.592 1.717 0 3.078.433 4.082 1.3 1.013.859 1.52 2.07 1.52 3.632v6.04c.008 1.321.193 2.321.553 3v.218h-3.76zm-3.078-2.588c.55 0 1.056-.12 1.52-.36.464-.25.807-.58 1.03-.992v-2.395h-1.391c-1.863 0-2.854.644-2.974 1.931l-.013.22c0 .463.163.845.489 1.146.326.3.773.45 1.339.45zm13.335-14.77v3.425h2.383v2.73h-2.383v6.954c0 .515.099.884.296 1.108.198.223.576.334 1.134.334.412 0 .777-.03 1.094-.09v2.82a7.658 7.658 0 01-2.253.335c-2.61 0-3.941-1.318-3.992-3.953v-7.508h-2.035v-2.73h2.035V23.51h3.721z" fill="#121214"/></svg>