<svg xmlns="http://www.w3.org/2000/svg" fill="none" viewBox="14.72 18.88 181.64 36.24"><path d="M15.72 45.56A8.56 8.56 0 0124.28 37h9.08v17.121h-9.08a8.56 8.56 0 01-8.56-8.56v0z" fill="#71C23E" stroke="#121214" stroke-width="2"/><path d="M41.92 45.578c0-4.728 3.833-8.578 8.56-8.578h9.08v8.008a9.113 9.113 0 01-9.113 9.113v0c-4.71 0-8.527-3.834-8.527-8.544v0z" fill="#01A6BC" stroke="#121214" stroke-width="2"/><path d="M33.36 28.456c0-4.727-3.833-8.577-8.561-8.577h-9.08v8.008A9.113 9.113 0 0024.834 37v0c4.709 0 8.526-3.834 8.526-8.544v0z" fill="#FA547C" stroke="#121214" stroke-width="2"/><path d="M50.48 28.44a8.56 8.56 0 11-17.12 0 8.56 8.56 0 0117.12 0z" fill="#FAA525" stroke="#121214" stroke-width="2"/><path d="M59.56 28.44A8.56 8.56 0 0051 19.879h-9.08V37H51a8.56 8.56 0 008.56-8.56v0z" fill="#FFD800" stroke="#121214" stroke-width="2"/><path d="M41.92 45.56a8.56 8.56 0 11-17.121 0 8.56 8.56 0 0117.12 0z" fill="#121214" stroke="#121214" stroke-width="2"/><path d="M75.64 48.375v-22.75h7c2 0 3.786.453 5.359 1.36 1.583.895 2.818 2.177 3.703 3.843.886 1.656 1.328 3.542 1.328 5.656v1.047c0 2.115-.437 3.995-1.312 5.64-.865 1.647-2.089 2.923-3.672 3.829-1.583.906-3.37 1.365-5.36 1.375H75.64zm4.687-18.953v15.187h2.266c1.833 0 3.234-.599 4.203-1.797.969-1.197 1.463-2.911 1.484-5.14v-1.203c0-2.313-.479-4.063-1.437-5.25-.959-1.198-2.36-1.797-4.203-1.797h-2.313zm23.29 19.266c-2.48 0-4.5-.76-6.063-2.282-1.552-1.52-2.328-3.547-2.328-6.078v-.437c0-1.698.328-3.214.984-4.547.657-1.344 1.584-2.375 2.782-3.094 1.208-.73 2.583-1.094 4.125-1.094 2.312 0 4.13.73 5.453 2.188 1.333 1.458 2 3.526 2 6.203v1.844H99.804c.146 1.104.583 1.99 1.313 2.656.739.667 1.671 1 2.796 1 1.74 0 3.099-.63 4.079-1.89l2.218 2.484c-.677.958-1.593 1.708-2.75 2.25-1.156.53-2.437.797-3.843.797zm-.516-13.876c-.896 0-1.625.303-2.188.907-.552.604-.906 1.468-1.062 2.593h6.281v-.359c-.021-1-.292-1.77-.812-2.312-.521-.552-1.261-.828-2.219-.828zm15.836 8.048l3.141-11.391h4.719l-5.704 16.906h-4.312l-5.703-16.906h4.719l3.14 11.39zm21.633-.454c0-.885-.312-1.562-.937-2.031-.625-.48-1.75-.98-3.375-1.5-1.625-.531-2.912-1.052-3.86-1.563-2.583-1.395-3.875-3.276-3.875-5.64 0-1.23.344-2.323 1.032-3.281.698-.97 1.692-1.724 2.984-2.266 1.302-.542 2.76-.813 4.375-.813 1.625 0 3.073.297 4.344.891 1.271.584 2.255 1.412 2.953 2.485.708 1.072 1.062 2.291 1.062 3.656h-4.687c0-1.042-.328-1.85-.984-2.422-.657-.584-1.579-.875-2.766-.875-1.146 0-2.037.245-2.672.734-.635.48-.953 1.115-.953 1.907 0 .74.37 1.359 1.109 1.859.75.5 1.849.969 3.297 1.406 2.667.802 4.61 1.797 5.828 2.984 1.219 1.188 1.828 2.667 1.828 4.438 0 1.969-.744 3.516-2.234 4.64-1.49 1.115-3.495 1.672-6.016 1.672-1.75 0-3.343-.317-4.781-.953-1.437-.645-2.536-1.526-3.297-2.64-.75-1.115-1.125-2.407-1.125-3.875h4.703c0 2.51 1.5 3.765 4.5 3.765 1.115 0 1.985-.224 2.61-.672.625-.458.937-1.093.937-1.906zm21.977-.172l2.219-10.765h4.359l-4.312 16.906h-3.781l-3.204-10.64-3.203 10.64h-3.765l-4.313-16.906h4.36l2.203 10.75 3.093-10.75h3.266l3.078 10.765zm18.305 6.141c-.208-.406-.359-.911-.453-1.516-1.094 1.22-2.516 1.828-4.266 1.828-1.656 0-3.031-.479-4.125-1.437-1.083-.958-1.625-2.167-1.625-3.625 0-1.792.662-3.167 1.985-4.125 1.333-.958 3.255-1.443 5.765-1.453h2.079v-.969c0-.781-.204-1.406-.61-1.875-.396-.469-1.026-.703-1.89-.703-.761 0-1.36.182-1.797.547-.427.364-.641.864-.641 1.5h-4.516c0-.98.302-1.886.907-2.719.604-.833 1.458-1.484 2.562-1.953 1.104-.48 2.344-.719 3.719-.719 2.083 0 3.734.526 4.953 1.578 1.229 1.042 1.844 2.51 1.844 4.407v7.328c.01 1.604.234 2.817.672 3.64v.266h-4.563zm-3.734-3.14a3.95 3.95 0 001.844-.438c.562-.302.979-.703 1.25-1.203v-2.907h-1.688c-2.26 0-3.464.782-3.609 2.344l-.016.266c0 .562.198 1.026.594 1.39.396.365.937.547 1.625.547zm16.18-17.922v4.156h2.89v3.312h-2.89v8.438c0 .625.12 1.073.359 1.343.24.271.698.407 1.375.407.5 0 .943-.037 1.328-.11v3.422a9.292 9.292 0 01-2.734.407c-3.167 0-4.781-1.6-4.844-4.797v-9.11h-2.469V31.47h2.469v-4.157h4.516z" fill="#121214"/></svg>