<svg display="none" xmlns="http://www.w3.org/2000/svg">
    <symbol id="facebook" viewBox="0 0 38 38">
        <g>
            <path fill-rule="evenodd" clip-rule="evenodd" d="M2.14551 0C1.04094 0 0.145508 0.895432 0.145508 2V35.085C0.145508 36.1896 1.04094 37.085 2.14551 37.085H35.2305C36.3351 37.085 37.2305 36.1896 37.2305 35.085V2C37.2305 0.895431 36.3351 0 35.2305 0H2.14551ZM12.6283 24.3171V37.085H17.6286V24.3171H22.5371L22.7604 19.7201H17.6286V16.3634C17.6286 15.096 17.9017 14.3323 19.6064 14.3323C21.1815 14.3323 22.6249 14.346 22.6249 14.346L22.7364 10.0531C22.7364 10.0531 21.3211 9.87477 19.4071 9.87477C14.6799 9.87477 12.6283 12.7082 12.6283 15.7937V19.7201H9.15527V24.3171H12.6283Z"/>
        </g>
    </symbol>
    <symbol id="instagram" viewBox="0 0 38 38">
        <g>
            <path fill-rule="evenodd" clip-rule="evenodd" d="M2.06055 0C0.955977 0 0.0605469 0.895432 0.0605469 2V35.085C0.0605469 36.1896 0.955979 37.085 2.06055 37.085H35.1455C36.2501 37.085 37.1455 36.1896 37.1455 35.085V2C37.1455 0.895431 36.2501 0 35.1455 0H2.06055ZM18.6035 4.88942C14.8949 4.88942 14.4307 4.90432 12.9748 4.97134H12.9735C11.5213 5.03837 10.5284 5.26923 9.65956 5.60559C8.74912 5.9487 7.92444 6.48621 7.24298 7.18064C6.54807 7.86244 6.01015 8.68754 5.66668 9.59847C5.33032 10.4673 5.09822 11.4602 5.03244 12.9149C4.96666 14.3696 4.95052 14.8338 4.95052 18.5424C4.95052 22.2498 4.96541 22.714 5.03244 24.1724C5.09946 25.6246 5.33032 26.6175 5.66668 27.4864C6.00964 28.3973 6.54715 29.2224 7.24174 29.9042C7.92417 30.5983 8.74968 31.1354 9.6608 31.478C10.5296 31.8156 11.5226 32.0477 12.9748 32.1135C14.4307 32.1793 14.8949 32.1954 18.6035 32.1954C22.3122 32.1954 22.7764 32.1805 24.2335 32.1135C25.6857 32.0465 26.6786 31.8156 27.5475 31.478C28.4573 31.1354 29.2826 30.5993 29.9653 29.9042C30.6595 29.2218 31.1965 28.3963 31.5391 27.4851C31.8767 26.6163 32.1088 25.6234 32.1746 24.1712C32.2404 22.7153 32.2565 22.2511 32.2565 18.5424C32.2565 14.835 32.2416 14.3708 32.1746 12.9124C32.1076 11.4602 31.8767 10.4673 31.5391 9.59847C31.1965 8.68744 30.6603 7.86329 29.9653 7.18189C29.2826 6.48682 28.4573 5.94939 27.5475 5.60559C26.6786 5.26923 25.6857 5.03712 24.231 4.97134C22.7764 4.90556 22.3122 4.88942 18.6035 4.88942ZM18.6035 7.34945C22.2489 7.34945 22.6808 7.3631 24.1206 7.42888C25.4524 7.4897 26.1747 7.71187 26.6563 7.89929C27.2492 8.118 27.7857 8.4666 28.2264 8.91954C28.7042 9.39739 28.9984 9.85291 29.2466 10.4896C29.4341 10.9712 29.6562 11.6936 29.7171 13.0254C29.7828 14.4651 29.7965 14.8971 29.7965 18.5424C29.7965 22.1878 29.7828 22.6197 29.7171 24.0595C29.6562 25.3913 29.4341 26.1136 29.2466 26.5952C29.0282 27.1872 28.6794 27.7247 28.2264 28.1653C27.7485 28.6432 27.293 28.9373 26.6563 29.1855C26.1747 29.373 25.4524 29.5951 24.1206 29.656C22.6808 29.7217 22.2501 29.7354 18.6035 29.7354C14.9569 29.7354 14.5262 29.7217 13.0865 29.656C11.7547 29.5951 11.0323 29.373 10.5507 29.1855C9.95869 28.9671 9.42126 28.6183 8.98064 28.1653C8.52761 27.7247 8.17883 27.1872 7.96038 26.5952C7.77297 26.1136 7.5508 25.3913 7.48998 24.0595C7.42419 22.6197 7.41054 22.1878 7.41054 18.5424C7.41054 14.8971 7.42419 14.4651 7.48998 13.0254C7.5508 11.6936 7.77297 10.9712 7.96038 10.4896C8.17906 9.8967 8.52766 9.36022 8.98064 8.91954C9.45849 8.44168 9.914 8.14752 10.5507 7.89929C11.0323 7.71187 11.7547 7.4897 13.0865 7.42888C14.5262 7.3631 14.9582 7.34945 18.6035 7.34945ZM19.9278 22.9061C18.918 23.2114 17.8336 23.1567 16.8597 22.7513C16.2376 22.4933 15.6805 22.1007 15.2284 21.6016C14.7763 21.1025 14.4405 20.5094 14.2452 19.8649C14.0498 19.2205 13.9998 18.5407 14.0987 17.8746C14.1976 17.2085 14.4429 16.5726 14.817 16.0127C15.1912 15.4528 15.6848 14.9828 16.2624 14.6366C16.84 14.2904 17.4871 14.0765 18.1573 14.0104C18.8275 13.9443 19.5039 14.0276 20.138 14.2543C20.7721 14.481 21.3481 14.8455 21.8244 15.3216C22.5716 16.0662 23.0371 17.0472 23.1413 18.097C23.2456 19.1467 22.9822 20.2001 22.3961 21.0772C21.81 21.9543 20.9375 22.6007 19.9278 22.9061ZM15.918 12.0589C15.0665 12.4116 14.2929 12.9285 13.6413 13.5802C12.3252 14.8962 11.5858 16.6812 11.5858 18.5424C11.5858 20.4036 12.3252 22.1886 13.6413 23.5047C14.9573 24.8207 16.7423 25.5601 18.6035 25.5601C20.4647 25.5601 22.2497 24.8207 23.5658 23.5047C24.2174 22.853 24.7343 22.0794 25.087 21.228C25.4397 20.3765 25.6212 19.464 25.6212 18.5424C25.6212 17.6208 25.4397 16.7083 25.087 15.8569C24.7343 15.0054 24.2174 14.2318 23.5658 13.5802C22.9141 12.9285 22.1405 12.4116 21.2891 12.0589C20.4376 11.7063 19.5251 11.5247 18.6035 11.5247C17.6819 11.5247 16.7694 11.7063 15.918 12.0589ZM27.5578 12.0311C27.4684 12.2343 27.3391 12.4175 27.1776 12.5699C26.8635 12.8661 26.4464 13.0283 26.0147 13.022C25.583 13.0157 25.1708 12.8414 24.8655 12.5361C24.5602 12.2309 24.3859 11.8186 24.3796 11.3869C24.3733 10.9552 24.5355 10.5381 24.8318 10.224C24.9841 10.0625 25.1673 9.93326 25.3705 9.84384C25.5737 9.75443 25.7927 9.70668 26.0147 9.70345C26.2367 9.70021 26.457 9.74155 26.6627 9.825C26.8685 9.90846 27.0553 10.0323 27.2123 10.1893C27.3693 10.3463 27.4932 10.5332 27.5766 10.7389C27.6601 10.9446 27.7014 11.165 27.6982 11.3869C27.6949 11.6089 27.6472 11.828 27.5578 12.0311Z" fill="#121214"/>
        </g>
    </symbol>
    <symbol id="linkedin" viewBox="0 0 38 38">
        <g>
            <path fill-rule="evenodd" clip-rule="evenodd" d="M2.23047 0C1.1259 0 0.230469 0.895432 0.230469 2V35.085C0.230469 36.1896 1.1259 37.085 2.23047 37.085H35.3155C36.42 37.085 37.3155 36.1896 37.3155 35.085V2C37.3155 0.895431 36.42 0 35.3155 0H2.23047ZM10.0229 12.5805C11.5522 12.5805 12.7919 11.3408 12.7919 9.8115C12.7919 8.28221 11.5522 7.04248 10.0229 7.04248C8.49364 7.04248 7.25391 8.28221 7.25391 9.8115C7.25391 11.3408 8.49364 12.5805 10.0229 12.5805ZM15.4063 14.6788V30.0413H20.1762V22.4442C20.1762 20.4396 20.5533 18.4982 23.0388 18.4982C25.4902 18.4982 25.5206 20.7901 25.5206 22.5708V30.0426H30.293V21.6178C30.293 17.4795 29.402 14.2991 24.5651 14.2991C22.2428 14.2991 20.6862 15.5735 20.0496 16.7796H19.9851V14.6788H15.4063ZM7.63332 14.6788H12.4108V30.0413H7.63332V14.6788Z"/>
        </g>
    </symbol>
    <symbol id="circle" viewBox="0 0 247 247">
        <g>
            <ellipse rx="120.024" ry="119.97" transform="matrix(-1 0 0 1 123.036 123.401)" stroke="#121214"/>
        </g>
    </symbol>
    <symbol id="little-circle" viewBox="0 0 70 71">
        <g>
            <ellipse rx="31.5896" ry="31.5752" transform="matrix(-1 0 0 1 34.7708 35.4398)" fill="#C5C6C7" stroke="#121214"/>
        </g>
    </symbol>
    <symbol id="various" viewBox="0 0 629 530">
        <g>
            <path d="M99.3859 266.532V386.501C99.3859 418.319 112.031 448.834 134.54 471.333C157.049 493.831 187.578 506.471 219.41 506.471C251.243 506.471 281.771 493.831 304.28 471.333C326.789 448.834 339.435 418.319 339.435 386.501V266.532H99.3859Z" fill="#FAA525" stroke="#121214"/>
            <path d="M340.445 265.41V135.63L600.124 5.84985V135.63L340.445 265.41Z" fill="#C5C6C7" stroke="#121214" />
        </g>
    </symbol>
    <symbol id="vector" viewBox="0 0 249 248">
        <g>
            <path d="M245.397 3.57397H3.86144V124.287H124.629V245H245.397V3.57397Z" fill="#FFD800" stroke="#121214"/>
        </g>
    </symbol>
    <symbol id="vector2" viewBox="0 0 268 247">
        <g>
            <path d="M264.183 3.60217H133.838C99.268 3.60217 66.1143 16.2418 41.6698 38.7405C17.2254 61.2392 3.49267 91.7539 3.49267 123.572C3.49267 155.39 17.2254 185.905 41.6698 208.403C66.1143 230.902 99.268 243.542 133.838 243.542H264.183V3.60217Z" fill="#FA547C" stroke="#121214" />
        </g>
    </symbol>
    <symbol id="vector3" viewBox="0 0 246 247">
        <g>
            <path d="M242.939 243.049L122.97 243.049C91.1518 243.049 60.637 230.403 38.1384 207.894C15.6397 185.385 3.00004 154.857 3.00004 123.024C3.00004 91.1919 15.6397 60.6632 38.1384 38.1543C60.637 15.6454 91.1518 2.99999 122.97 2.99999L242.939 3L242.939 243.049Z" fill="#FFD800" stroke="#121214"/>
        </g>
    </symbol>
    <symbol id="long-vector" viewBox="0 0 275 278">
        <g>
            <path d="M3 273.139V138.846L271.585 4.55371V138.846L3 273.139Z" fill="#71C23E" stroke="#121214"/>
        </g>
    </symbol>
    <symbol id="star" viewBox="0 0 29 33">
        <g>
            <path fill-rule="evenodd" clip-rule="evenodd" d="M12.6247 2.53906C12.6247 1.43449 13.5201 0.539062 14.6247 0.539062C15.7292 0.539062 16.6247 1.43449 16.6247 2.53906V13.075L25.7491 7.80701C26.7057 7.25473 27.9289 7.58248 28.4812 8.53907C29.0335 9.49565 28.7057 10.7188 27.7491 11.2711L18.6247 16.5391L27.749 21.807C28.7056 22.3593 29.0334 23.5825 28.4811 24.5391C27.9288 25.4957 26.7056 25.8234 25.749 25.2711L16.6247 20.0032V30.5391C16.6247 31.6436 15.7292 32.5391 14.6247 32.5391C13.5201 32.5391 12.6247 31.6436 12.6247 30.5391V20.0032L3.50041 25.2711C2.54383 25.8234 1.32065 25.4957 0.768363 24.5391C0.216078 23.5825 0.543828 22.3593 1.50041 21.807L10.6247 16.5391L1.50033 11.2711C0.543749 10.7188 0.215998 9.49565 0.768283 8.53907C1.32057 7.58248 2.54375 7.25473 3.50033 7.80701L12.6247 13.075V2.53906Z"/>
        </g>
    </symbol>
    <symbol id="vector-arrow" viewBox="0 0 225 274">
        <g>
            <path d="M220.873 101.121L52.961 4.17652L4.48891 88.1326L88.445 136.605L39.9729 220.561L123.929 269.033L220.873 101.121Z" fill="#FAA525" stroke="#121214"/>
        </g>
    </symbol>
    <symbol id="quotes" viewBox="0 0 30 22">
        <g>
            <path d="M7.378 21.521C5.8071 21.521 4.51216 21.1601 3.4932 20.4383C2.47424 19.7166 1.71002 18.7825 1.20054 17.6362C0.733512 16.4474 0.5 15.1312 0.5 13.6877C0.5 11.7772 0.903339 9.95151 1.71002 8.21078C2.55915 6.4276 3.6418 4.87793 4.95796 3.56177C6.31658 2.20315 7.78134 1.18419 9.35224 0.504883L13.7465 3.75283C12.5577 4.21985 11.4538 4.81424 10.4349 5.53601C9.45838 6.25778 8.58801 7.04323 7.82379 7.89236C7.10203 8.74149 6.55009 9.61186 6.16798 10.5035L6.4864 10.6945C6.69869 10.5247 6.97466 10.3973 7.31431 10.3124C7.65397 10.2275 8.09976 10.185 8.6517 10.185C9.41592 10.185 10.1801 10.3761 10.9444 10.7582C11.751 11.1403 12.4091 11.7135 12.9186 12.4777C13.4705 13.2419 13.7465 14.2184 13.7465 15.4072C13.7465 16.7658 13.4493 17.8909 12.8549 18.7825C12.2605 19.6741 11.4751 20.3534 10.4986 20.8204C9.52206 21.2875 8.48187 21.521 7.378 21.521ZM22.9809 21.521C21.41 21.521 20.115 21.1601 19.0961 20.4383C18.0771 19.7166 17.3129 18.7825 16.8034 17.6362C16.3364 16.4474 16.1029 15.1312 16.1029 13.6877C16.1029 11.7772 16.5062 9.95151 17.3129 8.21078C18.162 6.4276 19.2447 4.87793 20.5608 3.56177C21.9194 2.20315 23.3842 1.18419 24.9551 0.504883L29.3494 3.75283C28.1606 4.21985 27.0567 4.81424 26.0377 5.53601C25.0612 6.25778 24.1909 7.04323 23.4267 7.89236C22.7049 8.74149 22.153 9.61186 21.7708 10.5035L22.0893 10.6945C22.3016 10.5247 22.5775 10.3973 22.9172 10.3124C23.2568 10.2275 23.7026 10.185 24.2546 10.185C25.0188 10.185 25.783 10.3761 26.5472 10.7582C27.3539 11.1403 28.012 11.7135 28.5215 12.4777C29.0734 13.2419 29.3494 14.2184 29.3494 15.4072C29.3494 16.7658 29.0522 17.8909 28.4578 18.7825C27.8634 19.6741 27.0779 20.3534 26.1014 20.8204C25.1249 21.2875 24.0847 21.521 22.9809 21.521Z" fill="black"/>
        </g>
    </symbol>
    <symbol id="link">
        <svg viewBox="0 0 20 21" fill="none">
            <path d="M11.5 8.8208L19 1.3208" stroke="#F7F7F7" stroke-width="2" stroke-linecap="round" stroke-linejoin="round"/>
            <path d="M14 1.3208H19V6.3208" stroke="#F7F7F7" stroke-width="2" stroke-linecap="round" stroke-linejoin="round"/>
            <path d="M19 12.3208V17.3208C19 17.8512 18.7893 18.3599 18.4142 18.735C18.0391 19.1101 17.5304 19.3208 17 19.3208H3C2.46957 19.3208 1.96086 19.1101 1.58579 18.735C1.21071 18.3599 1 17.8512 1 17.3208V3.3208C1 2.79037 1.21071 2.28166 1.58579 1.90659C1.96086 1.53151 2.46957 1.3208 3 1.3208H8" stroke="#F7F7F7" stroke-width="2" stroke-linecap="round" stroke-linejoin="round"/>
        </svg>
    </symbol>
    <symbol id="see-more" fill="white" viewBox="0 0 69 52">
        <g>
            <path d="M64.8231 22.2296C66.3758 24.2606 66.3758 27.0025 64.8231 29.0302C59.9323 35.4147 48.1985 48.5604 34.4992 48.5604C20.7999 48.5604 9.06604 35.4147 4.1753 29.0302C3.41985 28.0577 3.00977 26.8613 3.00977 25.6299C3.00977 24.3985 3.41985 23.2021 4.1753 22.2296C9.06604 15.8452 20.7999 2.69946 34.4992 2.69946C48.1985 2.69946 59.9323 15.8452 64.8231 22.2296V22.2296Z" stroke="#121214" stroke-linecap="round" stroke-linejoin="round"/>
            <path d="M34.5009 35.457C39.9282 35.457 44.3279 31.0573 44.3279 25.63C44.3279 20.2027 39.9282 15.803 34.5009 15.803C29.0735 15.803 24.6738 20.2027 24.6738 25.63C24.6738 31.0573 29.0735 35.457 34.5009 35.457Z" stroke="#121214" stroke-linecap="round" stroke-linejoin="round"/>
        </g>
    </symbol>
    <symbol id="see-less" fill="white" viewBox="0 0 69 59">
        <g>
            <path d="M17.706 46.4304C11.6624 42.1393 6.88001 36.5576 4.1776 33.033C3.42192 32.0601 3.01172 30.8632 3.01172 29.6313C3.01172 28.3994 3.42192 27.2025 4.1776 26.2295C9.06813 19.8453 20.8015 6.7002 34.5002 6.7002C40.6453 6.7002 46.3908 9.34364 51.3042 12.8387" stroke="black" stroke-linecap="round" stroke-linejoin="round"/>
            <path d="M41.4783 22.7083C40.5686 21.7835 39.4848 21.048 38.2895 20.5441C37.0941 20.0402 35.8108 19.778 34.5136 19.7725C33.2164 19.7671 31.9309 20.0186 30.7314 20.5124C29.5318 21.0063 28.4419 21.7327 27.5246 22.6499C26.6072 23.567 25.8805 24.6568 25.3863 25.8562C24.8922 27.0556 24.6405 28.341 24.6456 29.6382C24.6507 30.9354 24.9126 32.2188 25.4162 33.4143C25.9198 34.6098 26.6551 35.6937 27.5797 36.6036" stroke="black" stroke-linecap="round" stroke-linejoin="round"/>
            <path d="M8.2959 55.8348L60.7061 3.42456" stroke="black" stroke-linecap="round" stroke-linejoin="round"/>
            <path d="M27.9502 51.5895C30.0768 52.2225 32.2827 52.549 34.5015 52.5591C48.2002 52.5591 59.9335 39.414 64.8241 33.0298C65.5795 32.0559 65.9893 30.8583 65.9887 29.6258C65.9881 28.3933 65.5772 27.1961 64.8208 26.223C63.102 23.9808 61.2582 21.8373 59.298 19.8027" stroke="black" stroke-linecap="round" stroke-linejoin="round"/>
        </g>
    </symbol>
</svg>
