<svg display="none" xmlns="http://www.w3.org/2000/svg">
    <symbol id="facebook" viewBox="0 0 38 38">
        <g>
            <path fill-rule="evenodd" clip-rule="evenodd" d="M2.14551 0C1.04094 0 0.145508 0.895432 0.145508 2V35.085C0.145508 36.1896 1.04094 37.085 2.14551 37.085H35.2305C36.3351 37.085 37.2305 36.1896 37.2305 35.085V2C37.2305 0.895431 36.3351 0 35.2305 0H2.14551ZM12.6283 24.3171V37.085H17.6286V24.3171H22.5371L22.7604 19.7201H17.6286V16.3634C17.6286 15.096 17.9017 14.3323 19.6064 14.3323C21.1815 14.3323 22.6249 14.346 22.6249 14.346L22.7364 10.0531C22.7364 10.0531 21.3211 9.87477 19.4071 9.87477C14.6799 9.87477 12.6283 12.7082 12.6283 15.7937V19.7201H9.15527V24.3171H12.6283Z"/>
        </g>
    </symbol>
    <symbol id="instagram" viewBox="0 0 38 38">
        <g>
            <path fill-rule="evenodd" clip-rule="evenodd" d="M2.06055 0C0.955977 0 0.0605469 0.895432 0.0605469 2V35.085C0.0605469 36.1896 0.955979 37.085 2.06055 37.085H35.1455C36.2501 37.085 37.1455 36.1896 37.1455 35.085V2C37.1455 0.895431 36.2501 0 35.1455 0H2.06055ZM18.6035 4.88942C14.8949 4.88942 14.4307 4.90432 12.9748 4.97134H12.9735C11.5213 5.03837 10.5284 5.26923 9.65956 5.60559C8.74912 5.9487 7.92444 6.48621 7.24298 7.18064C6.54807 7.86244 6.01015 8.68754 5.66668 9.59847C5.33032 10.4673 5.09822 11.4602 5.03244 12.9149C4.96666 14.3696 4.95052 14.8338 4.95052 18.5424C4.95052 22.2498 4.96541 22.714 5.03244 24.1724C5.09946 25.6246 5.33032 26.6175 5.66668 27.4864C6.00964 28.3973 6.54715 29.2224 7.24174 29.9042C7.92417 30.5983 8.74968 31.1354 9.6608 31.478C10.5296 31.8156 11.5226 32.0477 12.9748 32.1135C14.4307 32.1793 14.8949 32.1954 18.6035 32.1954C22.3122 32.1954 22.7764 32.1805 24.2335 32.1135C25.6857 32.0465 26.6786 31.8156 27.5475 31.478C28.4573 31.1354 29.2826 30.5993 29.9653 29.9042C30.6595 29.2218 31.1965 28.3963 31.5391 27.4851C31.8767 26.6163 32.1088 25.6234 32.1746 24.1712C32.2404 22.7153 32.2565 22.2511 32.2565 18.5424C32.2565 14.835 32.2416 14.3708 32.1746 12.9124C32.1076 11.4602 31.8767 10.4673 31.5391 9.59847C31.1965 8.68744 30.6603 7.86329 29.9653 7.18189C29.2826 6.48682 28.4573 5.94939 27.5475 5.60559C26.6786 5.26923 25.6857 5.03712 24.231 4.97134C22.7764 4.90556 22.3122 4.88942 18.6035 4.88942ZM18.6035 7.34945C22.2489 7.34945 22.6808 7.3631 24.1206 7.42888C25.4524 7.4897 26.1747 7.71187 26.6563 7.89929C27.2492 8.118 27.7857 8.4666 28.2264 8.91954C28.7042 9.39739 28.9984 9.85291 29.2466 10.4896C29.4341 10.9712 29.6562 11.6936 29.7171 13.0254C29.7828 14.4651 29.7965 14.8971 29.7965 18.5424C29.7965 22.1878 29.7828 22.6197 29.7171 24.0595C29.6562 25.3913 29.4341 26.1136 29.2466 26.5952C29.0282 27.1872 28.6794 27.7247 28.2264 28.1653C27.7485 28.6432 27.293 28.9373 26.6563 29.1855C26.1747 29.373 25.4524 29.5951 24.1206 29.656C22.6808 29.7217 22.2501 29.7354 18.6035 29.7354C14.9569 29.7354 14.5262 29.7217 13.0865 29.656C11.7547 29.5951 11.0323 29.373 10.5507 29.1855C9.95869 28.9671 9.42126 28.6183 8.98064 28.1653C8.52761 27.7247 8.17883 27.1872 7.96038 26.5952C7.77297 26.1136 7.5508 25.3913 7.48998 24.0595C7.42419 22.6197 7.41054 22.1878 7.41054 18.5424C7.41054 14.8971 7.42419 14.4651 7.48998 13.0254C7.5508 11.6936 7.77297 10.9712 7.96038 10.4896C8.17906 9.8967 8.52766 9.36022 8.98064 8.91954C9.45849 8.44168 9.914 8.14752 10.5507 7.89929C11.0323 7.71187 11.7547 7.4897 13.0865 7.42888C14.5262 7.3631 14.9582 7.34945 18.6035 7.34945ZM19.9278 22.9061C18.918 23.2114 17.8336 23.1567 16.8597 22.7513C16.2376 22.4933 15.6805 22.1007 15.2284 21.6016C14.7763 21.1025 14.4405 20.5094 14.2452 19.8649C14.0498 19.2205 13.9998 18.5407 14.0987 17.8746C14.1976 17.2085 14.4429 16.5726 14.817 16.0127C15.1912 15.4528 15.6848 14.9828 16.2624 14.6366C16.84 14.2904 17.4871 14.0765 18.1573 14.0104C18.8275 13.9443 19.5039 14.0276 20.138 14.2543C20.7721 14.481 21.3481 14.8455 21.8244 15.3216C22.5716 16.0662 23.0371 17.0472 23.1413 18.097C23.2456 19.1467 22.9822 20.2001 22.3961 21.0772C21.81 21.9543 20.9375 22.6007 19.9278 22.9061ZM15.918 12.0589C15.0665 12.4116 14.2929 12.9285 13.6413 13.5802C12.3252 14.8962 11.5858 16.6812 11.5858 18.5424C11.5858 20.4036 12.3252 22.1886 13.6413 23.5047C14.9573 24.8207 16.7423 25.5601 18.6035 25.5601C20.4647 25.5601 22.2497 24.8207 23.5658 23.5047C24.2174 22.853 24.7343 22.0794 25.087 21.228C25.4397 20.3765 25.6212 19.464 25.6212 18.5424C25.6212 17.6208 25.4397 16.7083 25.087 15.8569C24.7343 15.0054 24.2174 14.2318 23.5658 13.5802C22.9141 12.9285 22.1405 12.4116 21.2891 12.0589C20.4376 11.7063 19.5251 11.5247 18.6035 11.5247C17.6819 11.5247 16.7694 11.7063 15.918 12.0589ZM27.5578 12.0311C27.4684 12.2343 27.3391 12.4175 27.1776 12.5699C26.8635 12.8661 26.4464 13.0283 26.0147 13.022C25.583 13.0157 25.1708 12.8414 24.8655 12.5361C24.5602 12.2309 24.3859 11.8186 24.3796 11.3869C24.3733 10.9552 24.5355 10.5381 24.8318 10.224C24.9841 10.0625 25.1673 9.93326 25.3705 9.84384C25.5737 9.75443 25.7927 9.70668 26.0147 9.70345C26.2367 9.70021 26.457 9.74155 26.6627 9.825C26.8685 9.90846 27.0553 10.0323 27.2123 10.1893C27.3693 10.3463 27.4932 10.5332 27.5766 10.7389C27.6601 10.9446 27.7014 11.165 27.6982 11.3869C27.6949 11.6089 27.6472 11.828 27.5578 12.0311Z" fill="#121214"/>
        </g>
    </symbol>
    <symbol id="linkedin" viewBox="0 0 38 38">
        <g>
            <path fill-rule="evenodd" clip-rule="evenodd" d="M2.23047 0C1.1259 0 0.230469 0.895432 0.230469 2V35.085C0.230469 36.1896 1.1259 37.085 2.23047 37.085H35.3155C36.42 37.085 37.3155 36.1896 37.3155 35.085V2C37.3155 0.895431 36.42 0 35.3155 0H2.23047ZM10.0229 12.5805C11.5522 12.5805 12.7919 11.3408 12.7919 9.8115C12.7919 8.28221 11.5522 7.04248 10.0229 7.04248C8.49364 7.04248 7.25391 8.28221 7.25391 9.8115C7.25391 11.3408 8.49364 12.5805 10.0229 12.5805ZM15.4063 14.6788V30.0413H20.1762V22.4442C20.1762 20.4396 20.5533 18.4982 23.0388 18.4982C25.4902 18.4982 25.5206 20.7901 25.5206 22.5708V30.0426H30.293V21.6178C30.293 17.4795 29.402 14.2991 24.5651 14.2991C22.2428 14.2991 20.6862 15.5735 20.0496 16.7796H19.9851V14.6788H15.4063ZM7.63332 14.6788H12.4108V30.0413H7.63332V14.6788Z"/>
        </g>
    </symbol>
    <symbol id="circle" viewBox="0 0 247 247">
        <g>
            <ellipse rx="120.024" ry="119.97" transform="matrix(-1 0 0 1 123.036 123.401)" fill="#01A6BC" stroke="#121214" stroke-width="6"/>
        </g>
    </symbol>
    <symbol id="various" viewBox="0 0 629 530">
        <g>
            <path d="M600.124 266.532H469.779C435.209 266.532 402.056 279.171 377.611 301.67C353.167 324.169 339.434 354.683 339.434 386.501C339.434 418.319 353.167 448.834 377.611 471.333C402.056 493.831 435.209 506.471 469.779 506.471H600.124V266.532Z" fill="#FA547C" stroke="#121214" stroke-width="6"/>
            <path d="M99.3859 266.532V386.501C99.3859 418.319 112.031 448.834 134.54 471.333C157.049 493.831 187.578 506.471 219.41 506.471C251.243 506.471 281.771 493.831 304.28 471.333C326.789 448.834 339.435 418.319 339.435 386.501V266.532H99.3859Z" fill="#FAA525" stroke="#121214" stroke-width="6"/>
            <path d="M340.445 265.41V135.63L600.124 5.84985V135.63L340.445 265.41Z" fill="#C5C6C7" stroke="#121214" stroke-width="6"/>
        </g>
    </symbol>
    <symbol id="vector" viewBox="0 0 268 247">
        <g>
            <path d="M264.124 3.36981H133.779C99.2094 3.36981 66.0557 16.0094 41.6112 38.5081C17.1668 61.0068 3.43407 91.5216 3.43407 123.34C3.43407 155.157 17.1668 185.672 41.6112 208.171C66.0557 230.67 99.2094 243.309 133.779 243.309H264.124V3.36981Z" fill="#FFD800" stroke="#121214" stroke-width="6"/>
        </g>
    </symbol>
    <symbol id="long-vector" viewBox="0 0 275 278">
        <g>
            <path d="M3 273.139V138.846L271.585 4.55371V138.846L3 273.139Z" fill="#71C23E" stroke="#121214" stroke-width="5"/>
        </g>
    </symbol>
    <symbol id="star" viewBox="0 0 29 33">
        <g>
            <path fill-rule="evenodd" clip-rule="evenodd" d="M12.6247 2.53906C12.6247 1.43449 13.5201 0.539062 14.6247 0.539062C15.7292 0.539062 16.6247 1.43449 16.6247 2.53906V13.075L25.7491 7.80701C26.7057 7.25473 27.9289 7.58248 28.4812 8.53907C29.0335 9.49565 28.7057 10.7188 27.7491 11.2711L18.6247 16.5391L27.749 21.807C28.7056 22.3593 29.0334 23.5825 28.4811 24.5391C27.9288 25.4957 26.7056 25.8234 25.749 25.2711L16.6247 20.0032V30.5391C16.6247 31.6436 15.7292 32.5391 14.6247 32.5391C13.5201 32.5391 12.6247 31.6436 12.6247 30.5391V20.0032L3.50041 25.2711C2.54383 25.8234 1.32065 25.4957 0.768363 24.5391C0.216078 23.5825 0.543828 22.3593 1.50041 21.807L10.6247 16.5391L1.50033 11.2711C0.543749 10.7188 0.215998 9.49565 0.768283 8.53907C1.32057 7.58248 2.54375 7.25473 3.50033 7.80701L12.6247 13.075V2.53906Z"/>
        </g>
    </symbol>
    <symbol id="vector-arrow" viewBox="0 0 225 274">
        <g>
            <path d="M220.873 101.121L52.961 4.17652L4.48891 88.1326L88.445 136.605L39.9729 220.561L123.929 269.033L220.873 101.121Z" fill="#FAA525" stroke="#121214" stroke-width="6"/>
        </g>
    </symbol>
</svg>
